<?xml version="1.0" encoding="UTF-8"?>
<svg id="Layer_1" data-name="Layer 1" xmlns="http://www.w3.org/2000/svg" viewBox="0 0 1096.71 584.67">
  <path d="M393.22,371.54c34.43,3.42,76.5,19.48,91.47,53.29-19.73-23.98-45.06-40.71-76.13-44.12,28.65,11.69,55.35,28.11,75.7,53.22-4.98-2.96-9.48-7.05-14.13-10.95-15.42-12.93-31.81-23.31-50.35-31.34-11.48-4.97-23.19-10.32-35.98-10.6-29.27-.65-63.94,10.46-91.15,22.57-3.39,17.3-4.83,33.99-5.58,51.79-.12,2.92-1.4,6.09-2.99,8.1-16.36,3.89-6.58-43.23-5.96-52.54-50.68,24.83-111.67,71.95-147.27,114.13-3.36,3.98-8.02,6.95-13.26,6.71-3.18-.15-6.69-2.58-7.79-4.95-4.17-9.06,13.17-23.99,20.73-31.09,33.57-31.51,88.71-73.29,130.72-91.07l19.15-8.1,10.55-36.82c-9.36-.79-19.09-.16-29.07,1.1-2.94.37-6.39-.73-7.87-3.02-1.27-1.96-1.14-5.6.18-8.06,2.37-4.41,6.78-5.3,11.57-6.15l30.15,2.41,15.08-36.99c-19.41-5.98-38.85-11.57-58.76-15.67l-32.1-6.6c4.68,13.65,10.67,25.52,17.91,37.63,2.77,4.63,4.78,10.47,3.35,15.63-1.29,4.68-5.87,6.68-9.98,6.59-3.96-.08-7.56-2.86-9.97-6.81-10.58-17.37-17.29-35.99-22.81-55.93-49.85-7.86-122.41-10.25-171.31-3.07l-18.31,2.69c-3.95.58-7.63-2.77-8.61-5.98-3.08-10.16,13.52-13.1,21.22-13.85,55.96-5.46,112.22-4.39,167.6,5.35l6.55,1.15c-11.12-55.62-4.44-116.16,27.84-163.85,16.08-23.75,37.18-43.26,63.06-55.68,36.06-17.32,76.8-15.64,111.46,3.47,37.69,20.79,60.45,57.25,75.49,96.69,18.06,47.34,28.42,100.01,33.21,150.87-2.05-5.2-3.04-10.32-4.34-15.94-14.78-71.2-38.05-166.98-95.9-215.53-34.82-29.22-83.17-32.68-121.76-8.42-21.96,13.81-38.91,33.45-51.11,56.54-24.7,46.31-27.69,104.89-17.32,155.18,34.49,6.6,67.44,14.54,100.2,25.77l18.47-32.51c9.32-13.32,20.07-24.71,33.5-33.7-16.37-19.71-34.44-36.47-54.5-51.5-3.44-2.58-3.83-7.55-2.38-10.72,1.59-3.46,6.6-5.6,11.07-3.82,15.7,6.25,44.9,45.04,56.56,60.86,31.88-14.41,65.95-8.78,85.85,21.41,23.71,35.97,38.08,99.56,40.58,143.39l-11.44-47.13c-6.64-26.45-21.61-72.67-37.95-93.66-9.81-12.59-24.24-21.44-40.46-22.28-10.88-.56-21.3,2.68-31.26,6.54l23.04,31.6c15.29,20.97,28.8,42.27,42.31,64.52,11.91,19.62,21.44,39.63,31.71,60.06,2.6,7.52,6.81,13.62,8.61,21.51-20.29-38.51-42.82-74.4-68.14-109.66-15.28-21.29-29.99-41.93-46.82-62.78-21.59,15.26-32.92,37.44-46.19,61.42,34.43,13.46,66.66,28.83,97.26,48.79,13.83,9.02,26.96,18.09,37.47,31.08-20.8-16.1-41.98-29.38-65.59-40.52-24.56-11.59-48.69-21.5-74.63-29.55l-15.07,35.21c29.1,5.42,56.55,12.95,84.68,23.68ZM325.66,381.6c15.17-4.47,29.44-5.71,45.46-7.47-22.34-6.46-44.09-10.56-67.06-13.07l-8.84,29.5,30.44-8.97Z"/>
  <path d="M704.06,317.38c-19.24-32.07-55.32-47.58-91.42-31.56-16.65,7.39-30.55,18.39-43.14,31.48-5.39,5.6-11.43,11.48-13.92,18.87l-7.57,22.43c-7.02,20.8-13.65,41.28-23.29,60.98,6.53-24.3,15.04-46.64,19.78-71.28-16.36,26.64-28.81,54.9-39.58,84.28,2.81-22.21,11.33-41.72,20.1-61.83,7.66-17.59,20.01-31.7,27.4-49.13l22.71-53.55c11.13-26.23,45.37-79.26,68.29-97.71,3.15-2.54,8.02-2.51,10.86-.13,2.81,2.35,4.94,7.14,1.89,10.8-3.96,4.74-8.74,8.54-13.22,12.94-30.58,30.09-55.57,71.29-73.31,110.46,24.17-25.06,59.19-42.45,94.56-32.42,23.24,6.58,41.21,22.8,53.25,43.05,17.72-2.13,34.47-1.9,52.33-1.45,2.15-26.66.3-52.28-4.05-78.33-6.7-37.67-17.57-80.15-36.33-113.39-20.43-36.22-55.44-52.57-94.39-31.94-12.88,6.82-24.05,15.42-34.03,26.04-50.26,53.48-72.99,123.02-86.59,193.88-2.17,11.28-3.28,22.09-6.52,32.74,1.66-37.89,7.32-74.34,16.98-110.63,13.78-51.77,39.76-102.36,82.36-135.7,16.01-12.53,34.05-20.47,54.3-21.82,38.69-2.58,63.72,20.47,81.36,52.03,28.65,53.62,44.34,127.81,41.87,188.53,47.89,4.74,97.49,26.05,129.76,61.44,18.03,18.93,29.47,41.82,34.1,67.53,46.58,21.24,95.69,53.77,133.36,87.54,4.77,4.28,8.62,8.73,12.49,13.71,2.94,3.78,3.29,10.77-.64,13.32-6.12,3.97-11.1-.81-14.74-5.2-24.05-29.07-93.21-73.81-128.51-92.52-1.08,11.61,3.22,30.7-11.09,30.64-6.26-.03-10.8-4.66-9.8-11.13,1.47-9.5,2.9-18.6,3.34-28.72-62.63-31.95-130.43-50.88-199.97-53.8-.85,4.97-3.57,7.19-6.98,7.06s-5.61-3.18-5.94-7.7c-21.57-1.82-42.78-.15-64.46,2.06-39.28,4.01-81.32,17.31-117.17,34.26,38.19-27.07,105.03-42.52,150.95-44.23l31.75-1.18c3.72-21.64-1.53-43.19-12.07-62.53-66.46,10.63-134.96,48.43-180.16,98.16l-1.64.51c-.23.07-.03-.43.27-1.02,11.58-15.06,24.03-28.18,38.72-40.21,41.85-34.26,81.84-56.52,137.74-65.64ZM784,323.67c-1.45,9.69-2.32,35.03-15.67,33.51-4.15-.47-7.4-3.92-8.56-8.16-1.5-9.57,2.12-17.73,7.94-26.49-15.45-1.13-30.4-.57-45.62,1.27,10.7,20.99,14.45,42.42,11.96,64.94,69.87,2.09,134.09,17.51,197.32,46.61-17.95-67-83.47-102.49-147.37-111.67Z"/>
  <path d="M740.22,562.32c-19.57-76.74-108.8-114.61-182.85-104.82,22.51,1.54,52.9,10.09,66.68,29.34,2.47,3.44,1.75,8.49-1.04,10.33-3.55,2.34-7.86,1.52-10.51-1.85-9.79-12.44-21.72-22.78-36.27-29.33-12.47-5.61-25.59-5.76-38.74-6.43,68.45-18.6,153.58,4.32,198.28,59.5,8.13,10.03,23.77,35.06,19.26,47.58-1.23,3.42-5.68,4.15-8.61,3.59-3.65-.7-5.19-3.95-6.2-7.91Z"/>
  <path d="M510.64,259.86c-5.41-19.79-5.91-39.65-7.29-60.36-2.68-40.21-2.61-102.62,13.47-139.43,2.04-4.66,5.8-8.31,10.89-8.83,2.9-.3,6,1.07,7.63,3.28s1.05,5.39-.19,8.46c-17.53,43.2-24.22,112.71-24.92,159.47-.19,12.72.8,24.05.42,37.41Z"/>
  <path d="M713.43,463.83c-28.22-28.35-72.13-36.78-110.33-33.87-23.01,1.75-44.12,7.49-65.6,16.3,15.64-10.32,33.28-15.68,51.64-19.72,26.78-6.15,53.65-6.02,80.57-.33,18.52,3.92,43.42,13.86,56.09,27.84,3.25,3.58,2.62,8.47-.51,11.29-3.68,3.32-8,2.35-11.86-1.52Z"/>
  <path d="M516.32,484.5l-.97,7.78c-2.37-1.18-6.85-4.74-8.95-3.38l-8.19,5.31c-.84-3.55-2.26-7.06-5.13-8.66-3.62-2.01-7.04-1.55-12.2-.58.47-2.33,1.52-5.8,2.71-8.52,3.98-9.14-3.26-9.25-4.24-16.03,4.84-2.18,9.47-3.37,12.96-6.67,1.51-2.62,1.41-8.33,1.91-11.49,3.47,2.28,6.51,4.81,9.54,5.81,5.03,1.66,8.18-2.09,12.64-4.7,3.75,5.78-2.73,12.11,6.6,14.72,2.49.7,5.54,1.94,7.59,3.11-3.2,3.52-6.17,6.05-7.07,10.05l4.55,10.16c-4.4.23-9.17-1.33-11.73,3.09Z"/>
  <path d="M350.39,433.52c-9.41,3.14-17.36,6.68-25.92,10.67-2.85,1.33-6.04,1.14-8.39-.48s-4.29-5.02-2.68-8.06c1.8-3.39,5.76-6.01,9.44-7.62,44.56-19.62,111.85-14.55,152.22,14.28-18.91-7.83-36.95-14.8-57.29-15.83-23.01-2.77-44.97-.16-67.37,7.05Z"/>
  <path d="M404.25,481.01c-3.41,4.72-9.34,6.44-13.42,2.03-6.22-6.73,10.41-18.63,17.03-21.79,20.45-9.76,42.98-12.71,64.94-9.34l-23.02,2.49c-18.66,2.02-34.49,11.28-45.54,26.61Z"/>
  <path d="M436.4,206.27l-12.78,5.23,4.19-12.03-8.39-10.42c4.3,0,9.6.9,12.94.19,2.85-3.03,4.31-7.04,6.78-11.18l3.9,12.94,14.04,2.75-10.99,7.47,1.97,13.27-11.66-8.21Z"/>
  <polygon points="646.98 253.31 634.18 258.59 637.85 246.52 628.64 236.8 642.47 236.36 648.75 224.09 653.06 237.57 665.76 240.42 655.63 248.17 658.29 260.89 646.98 253.31"/>
  <path d="M844.89,312.81l-12.41,5.39,4.23-12.62-8.62-9.21c4.41-.98,9.6,1.33,12.53-.92,3.1-2.38,4.46-6.84,7.16-10.42l3.44,12.07,13.07,2.84-10.34,7.07,1.66,13.63-10.73-7.84Z"/>
  <path d="M740.97,442.02c-3.23-.68-8.52,2.83-12.96,4.02l4.64-12.53-8.02-9.49c5.44.27,10.03.57,14.22.2l6.93-9.4,2.71,12.48,12.31,4.37-10.91,5.66.64,12.29-9.56-7.59Z"/>
  <path d="M181.3,251.54c-7.91.85-12-4.43-16.84,2.59-1.45,2.1-2.71,3.47-4.99,5.75l-2.67-11.61-12.39-3.87,10.82-6.16,1.12-12.96,8.36,8.59,13.63-3.05-6.54,11.14,9.5,9.58Z"/>
  <path d="M539.81,21.19l-6.54,12.55-5.02-11.82-12.24-.34,8.39-9.24-3.58-11.84,11.97,6.11,10.58-6.61-1.64,12.19c2.6,2.48,6.04,4.83,10.54,8.2l-12.46.8Z"/>
  <polygon points="351.67 472.17 339.58 477.65 344.08 465.6 335.54 455.92 348.23 455.92 353.66 445.53 358.11 456.74 371.17 458.57 360.88 466.81 361.99 479.41 351.67 472.17"/>
  <path d="M559.05,509.95c9.47,11.14,11.69,30.31,1.16,30.18-2.85-.04-6.87-3.05-6.56-6.8,1.42-17.27-6.46-31.7-21.31-41.66,10.89,2.55,19.62,9.93,26.71,18.28Z"/>
  <polygon points="344.83 83.28 333.79 90.79 335.36 78.3 324.12 71.37 336.77 69 341.27 57.69 346.98 67.42 360.08 68 351.96 76.08 356.61 88.73 344.83 83.28"/>
  <polygon points="187.02 385.25 177.06 392.89 177.94 380.67 166.68 375.28 178.91 370.58 180.78 359.22 188.11 368.63 201.76 367.63 193.84 377.67 198.46 389.03 187.02 385.25"/>
  <polygon points="710.55 158.41 698.38 162.35 702.82 150.38 695.86 141.38 708.82 142.88 715.33 133.65 717.96 144.96 731.33 148.15 719.88 154.28 720.76 167.21 710.55 158.41"/>
  <path d="M1058.27,577.39l-12.73,4.36,5.23-11.42-6.81-10.19c4.63.08,8.7,1.72,12.32.67,3.32-.97,4.49-6.06,7.48-9.1l2.29,11.81,11.93,3.07-10.97,6.51,1.42,11.57-10.15-7.27Z"/>
  <polygon points="668.41 520.49 656.57 525.92 660.67 513.76 652.1 504.86 664.23 504.33 670.73 493.48 673.98 505.28 686.14 508.29 676.72 515.21 677.85 527.11 668.41 520.49"/>
  <path d="M937.98,521.87c-3.85.77-4.05,6.75-6.74,10.2l-5-10.95-12.56-1.37,7.78-8.06-2.46-11.55,10.92,5.84,11.55-4.72-3.14,11.07,10.19,7.43-10.55,2.11Z"/>
  <path d="M422.26,479.66c2.03-1.56,5.59-.85,6.96,1.45,1.09,1.84.71,5.24-1.86,7.19-1.57,1.19-4.84.71-6.65-1.5-1.46-1.78-.82-5.33,1.55-7.15Z"/>
  <path d="M644.08,482.65c1.8-.15,4.94,1.82,5.32,3.45.51,2.18-1.55,5.51-3.46,5.92-2.76.6-5.06-1.27-5.77-3.68-.77-2.58.5-5.41,3.92-5.69Z"/>
  <path d="M443.81,465.91c.73-.98,4.22-.75,4.89.04.8.95,1.1,3.39.14,4.15s-2.79,1.29-3.82,1.25c-1.45-.06-2.26-4.04-1.21-5.43Z"/>
</svg>