<?xml version="1.0" encoding="UTF-8"?>
<svg id="firework" xmlns="http://www.w3.org/2000/svg" version="1.1" viewBox="0 0 448.88 466.91">
  <!-- Generator: Adobe Illustrator 30.1.0, SVG Export Plug-In . SVG Version: 2.1.1 Build 136)  -->
  <defs>
    <style>
      .st0 {
        fill: #ea0d00;
      }

      .st1 {
        fill: #fff;
      }

      .st2 {
        fill: #262078;
      }

      .st3 {
        fill: #fe0002;
      }
    </style>
  </defs>
  <g>
    <path class="st3" d="M91.25,274.13c2.25.95,4.17,1.78,6.11,2.59,10.49,4.36,15.21,12.63,15.3,24.12.11,13.58-8.25,24.5-21.06,27.63-4.7,1.15-9.44,1.61-14.22,1.63-13.07.07-26.15.04-39.22.05-.45,0-.9-.07-1.5-.12v-3.4c1.51-.2,2.96-.42,4.42-.58,3.19-.34,5.71-2.61,6.24-5.89.31-1.91.5-3.87.5-5.81.03-24.86.03-49.71,0-74.57,0-2-.11-4.06-.57-5.99-.82-3.45-3.63-5.29-7.88-5.51-.84-.04-1.68,0-2.68,0v-3.75h11.47c10.21,0,20.42-.19,30.62.09,4.62.12,9.31.74,13.81,1.87,7.29,1.82,11.77,7.2,14.48,14.21,1.99,5.15,2.54,10.55,1.36,15.99-1.59,7.33-6.11,12.19-12.52,15.32-1.42.7-2.89,1.31-4.63,2.1h-.03v.02ZM67.79,278.95c-.05.18-.14.37-.14.56-.02,12.56-.09,25.13,0,37.69.03,3.95,2.81,6.68,6.3,6.42,6.25-.47,11.22-3.41,14.01-9.3,3.74-7.88,3.6-16.01.68-24.22-3.41-9.6-12.24-12.4-20.85-11.15h0ZM67.67,271.79c1.81-.16,3.4-.24,4.98-.43,6.2-.75,10.95-3.6,13.48-9.84,2.31-5.73,2.43-11.62,1.04-17.49-2.3-9.76-10.32-13.81-19.5-12.23v40h0Z"/>
    <path class="st3" d="M384.41,410.94h-21.27c-.34-1.37-.49-2.45,1.32-3.03,1.87-.61,1.77-2.33,1.22-3.87-1.13-3.19-2.28-6.38-3.61-9.49-2.51-5.88-5.14-11.71-8.02-18.22-.47,1.35-1.01,2.16-1.02,2.98-.07,7.43-.07,14.86-.02,22.29,0,1.26.17,2.57.5,3.78.56,2.03,2.04,3.02,4.16,3.16v2.52h-7.29c-8.46,0-16.91,0-25.37.04-1.32,0-1.96-.3-2.5-1.74-3.81-10.1-7.76-20.14-11.67-30.19-.42-1.09-.86-2.22-2.62-1.37v3.88c0,6.82-.08,13.64,0,20.47.06,4.95.74,5.67,5.3,6.56.68,2.2.58,2.36-1.47,2.36h-17.76c-.64,0-1.28-.06-1.99-.1v-2.11c4.87-1.5,5.65-2.58,5.65-7.95v-54.51c0-1.13-.15-2.28-.35-3.4-.47-2.69-1.32-3.44-4-3.76-.38-.04-.76-.16-1.25-.28-.04-.46-.11-.91-.12-1.36,0-.39.06-.78.12-1.39h4.7c5.4,0,10.81-.17,16.2.05,4.43.18,9.03.42,12.23,4.32,2.57,3.14,3.87,6.97,4.5,10.98.82,5.22.49,10.38-1.11,15.46-1.27,4.03-3.7,7.01-7.29,9.17,2.56,6.54,5.08,13.04,7.64,19.54,1.29,3.28,2.51,6.6,3.98,9.79,1.56,3.36,3.27,3.4,6.3,2.76,2.58-.54,2.6-3.2,3.07-5.33.1-.45.04-.94.04-1.42v-55.32c0-.34.03-.68,0-1.01-.49-4.46-1.17-6.1-5.4-6.09v-2.91h9.72c3.06,0,6.12-.05,9.17.05.57.02,1.44.58,1.61,1.08.3.91.12,1.86-1.24,1.95-1.98.12-2.99,1.72-3.01,3.39-.14,9.23-.07,18.44-.07,27.85,1.11-1.57,2.24-3.12,3.32-4.72,3.83-5.64,7.74-11.23,11.42-16.97,1.17-1.82,2.61-3.61,2.35-6.22-.2-1.97-1.04-3.08-2.76-3.28-1.35-.16-1.87-.67-1.74-2.02.15-1.5,1.27-1.08,2.09-1.09,4.23-.03,8.46-.05,12.68.04.66.02,1.64.54,1.87,1.09.43,1.03-.25,1.69-1.32,1.99-2.39.66-3.56,2.79-4.86,4.64-4.61,6.61-9.1,13.3-13.7,19.92-.67.96-.68,1.69-.22,2.73,3.36,7.48,6.58,15.02,9.98,22.47,2.53,5.55,5.21,11.04,7.98,16.47.52,1.03,1.67,1.88,2.71,2.42,1.28.67,1.77,1.42,1.19,2.94h.03ZM308.24,341.39v29.8c0,.9-.02,1.75,1.25,1.82,4.43.26,8.06-2.36,9.28-6.81,1.49-5.43,1.35-11,.47-16.42-1.1-6.84-4.53-9.26-11-8.38h0Z"/>
    <path class="st3" d="M142.34,339.34v-2.98h34.16v22.51c-.17.11-.33.22-.5.33-.33-.51-.85-.97-.97-1.53-.86-4.11-1.06-8.4-3.45-12.04-1.67-2.54-3.9-4.09-6.91-4.18-1.69-.05-3.4-.11-5.07.07-.5.05-1.32.9-1.32,1.38-.07,8.98-.05,17.97-.03,26.95,0,.19.12.37.17.54,2.64.37,4.74-.83,5.44-3.65.98-3.93,1.69-7.95,2.36-11.97.22-1.33.57-1.68,1.76-.99,0,12.49,0,24.99-.04,37.47,0,.48-.57.95-.88,1.43-.27-.45-.68-.86-.78-1.36-.78-3.71-1.39-7.47-2.28-11.15-.68-2.83-2.63-4.34-5.77-4.51v1.97c0,7.43-.02,14.86.02,22.29,0,1.26-.03,2.68.49,3.74.52,1.05,1.62,2.32,2.63,2.5,5.47.99,10.33-.9,12.75-6.31,1.51-3.36,2.31-7.07,3.42-10.62.14-.44.17-.95.41-1.32.22-.37.64-.63.97-.93.25.39.73.79.72,1.18-.07,2.48-.2,4.96-.38,7.44-.34,4.47-.81,8.93-1.06,13.41-.09,1.56-.52,2.1-2.06,2.09-15.35-.04-30.71-.04-46.06,0-1.18,0-1.77-.48-2.17-1.54-3.89-10.13-7.81-20.25-11.68-30.38-.51-1.33-1.12-2.08-2.71-1.44-.04.82-.12,1.69-.12,2.55,0,6.48-.03,12.97.02,19.45.02,1.74.19,3.49.46,5.22.27,1.75,1.36,2.87,3.01,3.33.67.19,1.38.29,2.16.45v2.17h-21.45c-.37-1.51-.22-2.33,1.6-2.57,2.59-.33,3.84-1.97,3.84-4.73.02-19.99.02-39.99-.02-59.98,0-2.47-1.54-4.17-3.93-4.37-1.12-.1-1.69-.35-1.67-1.62.02-1.37.81-1.45,1.82-1.45,6.5.02,13.01-.06,19.52.04,2.17.03,4.4.32,6.51.85,3.24.8,5.63,3.01,7.23,5.97,3.23,5.98,3.67,12.45,2.85,19.14-.41,3.32-1.23,6.48-3.16,9.14-1.07,1.47-2.41,2.84-3.89,3.82-1.18.79-1.23,1.48-.8,2.59,2.32,5.89,4.62,11.79,6.96,17.66,1.41,3.52,2.86,7.01,4.34,10.51.83,1.96,2.79,2.92,5.2,2.54,1.96-.31,3.15-1.53,3.44-3.56.21-1.45.38-2.92.39-4.38.02-18.18.02-36.34.02-54.52,0-.87.07-1.79-.14-2.62-.7-2.66-1.83-4.89-5.34-4.04v-.02h0l-.03.03ZM113.4,341.52v27.03c0,4.71.02,4.75,4.48,3.94,3-.54,4.96-2.34,5.91-5.37,1.92-6.05,1.84-12.19.53-18.3-1.36-6.32-5.15-8.79-10.93-7.3h0Z"/>
    <path class="st3" d="M415.51,289.57c-.07,9.21-1.6,17.19-5.15,24.61-3.71,7.75-9.05,13.69-17.71,15.34-8.75,1.67-16.64-.19-22.92-7-4.35-4.71-7.12-10.49-8.63-16.83-2.8-11.8-2.77-23.56,1.65-34.94,2.77-7.13,6.86-13.52,13.96-16.77,10.19-4.65,24.58-2.48,31.57,9.43,3.49,5.96,5.74,12.24,6.74,19.05.39,2.65.37,5.35.48,7.11h.01ZM401.23,293.53c-.44-7.12-.62-12.11-1.09-17.05-.47-4.89-1.56-9.64-3.82-14.03-3.14-6.08-9.76-8.08-14.28-4.23-2.38,2.02-3.8,4.75-4.87,7.67-2.81,7.63-3.18,15.69-3.38,23.72-.11,4.4.35,8.83.69,13.23.46,5.91,1.67,11.66,4.49,16.89,3.55,6.59,11.56,7.51,15.68,1.49,1.79-2.62,3.33-5.74,3.93-8.86,1.33-6.88,1.99-13.9,2.65-18.81h0v-.02Z"/>
    <path class="st3" d="M204.03,338.94c-.23-2.64-.15-2.73,2.12-2.73h16.2c1.02,0,1.92-.06,2,1.48.07,1.38-.61,1.47-1.62,1.64-2.04.35-2.95,1.88-2.51,4.06,2.63,13.23,5.28,26.45,8.32,39.65,1.94-9.16,3.92-18.3,5.79-27.47.8-3.92,1.47-7.88,1.94-11.85.32-2.74-.41-3.68-2.94-4.42-1.15-.33-1.42-1.06-1.14-1.88.17-.53,1.02-1.12,1.57-1.14,2.73-.11,5.46-.1,8.19,0,.51.02,1.4.51,1.42.83.05.7-.14,1.81-.61,2.08-1.92,1.14-2.46,3.09-2.89,5.01-2.23,10.21-4.4,20.44-6.53,30.67-2.54,12.14-5.01,24.29-7.57,36.43-.13.63-.77,1.14-1.18,1.71-.38-.57-.98-1.08-1.12-1.71-2.11-9.67-4.16-19.34-6.22-29.02-.95-4.45-1.9-8.91-2.86-13.36-.09-.42-.32-.81-.67-1.67-1.38,5.96-2.64,11.46-3.94,16.95-2.14,9.08-4.29,18.15-6.49,27.21-.14.6-.69,1.08-1.06,1.63-.42-.6-1.08-1.13-1.24-1.79-1.46-6.36-2.82-12.73-4.23-19.09-2.18-9.89-4.35-19.79-6.57-29.67-1.46-6.51-2.92-13.01-4.52-19.49-.28-1.16-1-2.47-1.91-3.13-1.31-.94-1.6-1.9-1.12-3.48h17.92v2.54c-4.06,1.03-3.82,2.44-3.08,6.24,2.35,12.04,5.17,23.99,7.81,35.96.24,1.1.51,2.2.86,3.73.32-.92.57-1.45.71-2.01,1.72-7.38,3.42-14.76,5.1-22.15.17-.77.3-1.64.13-2.4-1.1-5.01-2.18-10.01-3.46-14.97-.74-2.86-1.68-3.56-4.6-4.37h.02l-.02-.02Z"/>
    <path class="st3" d="M132.8,292.82c-.09.64-.22,1.17-.22,1.69-.02,7.5-.03,14.99,0,22.49,0,1.12.02,2.41.52,3.34.62,1.14,1.69,2.75,2.66,2.83,3.71.29,7.47.64,11.1-.91,5.56-2.37,8.08-7.24,9.93-12.68.52-1.5.73-3.12,1.24-4.63.16-.48.82-.78,1.24-1.16.28.48.86.98.82,1.43-.42,4.93-.97,9.84-1.43,14.76-.2,2.07-.36,4.14-.42,6.22-.05,1.48-.52,2.14-2.08,2.14-14.11-.05-28.22-.03-42.33-.03-.5,0-1.01-.14-1.57-.22v-2.15c1.06-.21,2.06-.36,3.04-.61,2.7-.65,3.96-2.08,3.98-4.83.16-18.82.28-37.65.38-56.47,0-1.4-.22-2.81-.44-4.19-.39-2.46-2.22-3.88-4.91-3.91-2.31-.02-2.33-.05-1.96-2.89h5.15c12.36,0,24.71.05,37.07,0,1.61,0,2.16.43,2.14,2.14-.08,6.28,0,12.56-.08,18.84,0,.6-.51,1.56-.98,1.72-1.18.42-1.15-.66-1.4-1.53-.97-3.45-1.65-7.1-3.24-10.23-1.77-3.48-4.9-5.61-8.99-5.66-2.65-.03-5.3-.21-7.95-.35-1.04-.06-1.53.24-1.53,1.45.03,8.78,0,17.55.02,26.33,0,.6.12,1.19.19,1.76,3.25.57,6.86-1.52,7.91-5,1.02-3.35,1.55-6.87,2.27-10.31.18-.86-.09-2,1.36-1.95,1.55.04,1.11,1.27,1.11,2.08.03,11.95.03,23.91-.03,35.86,0,.54-.63,1.44-1.11,1.57-1.28.32-1.15-.8-1.24-1.68-.45-4.29-1.07-8.53-3.48-12.21-1.59-2.44-3.85-3.42-6.74-3.01h.02l-.02-.04Z"/>
    <path class="st3" d="M344.53,296.91c0-11.08.22-22.16-.12-33.22-.12-4.05-1.05-7.54-6.28-7.81-1.21-.06-1.23-.33-.83-2.74h17.44v2.54c-5.03,1.36-6.69,3.44-6.69,8.96-.02,20.87.03,41.75.06,62.62v3.4c-1.16-.78-2.12-1.07-2.5-1.73-3.78-6.53-7.44-13.13-11.19-19.69-4.17-7.31-8.4-14.59-12.58-21.88-3.23-5.65-6.43-11.31-9.64-16.96-.18.02-.37.03-.55.04v45.77c0,6.46,1.57,8.47,7.75,9.72v2.31h-3.89c-4.42.02-8.85-.02-13.27.08-1.63.03-2.61-.29-1.96-2.39.12-.06.34-.22.57-.24,6.09-.83,6.91-3.55,7.06-9.53.32-12.43.15-24.86.17-37.28,0-4.46-.15-8.92.06-13.38.17-3.48-1.69-5.82-3.63-8.14-.57-.68-1.67-1.14-2.57-1.21-1.92-.16-2.07-1.21-1.66-2.91.47-.05.96-.16,1.45-.16,5.4,0,10.8.04,16.2-.04,1.16-.02,1.77.44,2.3,1.38,6.49,11.73,13,23.47,19.53,35.19,1.41,2.52,2.91,4.98,4.38,7.46l.38-.16h0Z"/>
    <path class="st3" d="M289.6,373.7c.16,7.63-1.07,15-3.51,22.15-1.62,4.77-3.89,9.16-7.51,12.74-5.35,5.29-14.61,5.85-20.51,1.18-5.51-4.36-8-10.54-9.9-17.09-1.92-6.62-2.52-13.46-2.44-20.33.12-9.21,1.62-18.16,6-26.33,2.56-4.78,5.84-8.88,11.24-10.38,7.48-2.09,15.2,1.07,19.34,8.04,3.86,6.48,6.18,13.54,6.72,21.18.21,2.95.37,5.9.55,8.84h.02ZM278.46,374.02c-.54-6.7-.94-13.42-1.68-20.1-.46-4.13-1.58-8.16-4.12-11.55-2.41-3.22-6.39-3.9-8.97-.67-1.25,1.57-2.37,3.36-3.1,5.25-2.96,7.68-3.26,15.85-3.37,23.93-.09,6.83.42,13.7,1.11,20.52.49,4.92,1.58,9.84,4.55,13.9,2.62,3.59,6.71,3.9,9.33.29,1.59-2.18,2.7-4.89,3.47-7.53,2.28-7.82,2.47-15.91,2.78-24.05h0Z"/>
    <path class="st3" d="M164.87,255.57c-.04-.7-.08-1.48-.14-2.4h28.14c.62,2.5.44,3-1.71,2.71-4.16-.58-5.95,2.96-5.95,6.41-.02,8.58,0,17.15,0,25.73,0,9.52,0,19.05.02,28.57,0,1.19-.06,2.54.44,3.54.59,1.19,1.72,2.94,2.66,2.97,3.98.16,8.09.31,11.93-.57,4.6-1.05,6.56-5.39,8.06-9.6,1.13-3.17,1.82-6.53,2.71-9.8.3-1.12.68-2.09,2.51-1.17-.6,8.61-1.22,17.4-1.84,26.27h-44.98c-2.14,0-2.21-.13-1.7-2.33.11-.07.22-.19.32-.18,5.59.07,6.63-3.2,6.62-7.23-.02-18.71-.02-37.41,0-56.12,0-2.37-.56-4.56-2.56-5.75-1.21-.71-2.81-.68-4.54-1.05h0Z"/>
    <path class="st3" d="M266.14,301.8c-.17,3.14-.28,6.36-.51,9.56-.32,4.63-.78,9.24-1.07,13.88-.18,3.03-.13,3.01-3,3.01-14.05,0-28.1,0-42.15.07-1.88,0-2.36-.63-1.73-2.52.77-.06,1.61-.03,2.4-.22,2.92-.72,4.53-2.7,4.53-5.88,0-19.45-.02-38.91-.07-58.36,0-2.91-1.97-5.96-5.6-5.4-.37.06-.77,0-1.32,0v-2.82h27.87c.52,2.75.51,2.91-1.92,2.78-3.69-.21-5.64,2.29-5.65,6.05-.05,18.78-.03,37.56-.02,56.34,0,3.31,1.58,5.08,4.72,5.01,3.41-.06,6.85-.17,10.22-.73,3.1-.51,5.17-2.98,6.31-5.78,1.78-4.41,3.1-9.03,4.54-13.58.38-1.19.69-2.21,2.46-1.43v.02h0Z"/>
    <path class="st3" d="M36.6,338.87v-2.52h34.5v21.75c-1.35.12-1.62-.2-1.82-1.82-.23-1.91-.42-3.85-.84-5.72-1.38-6.09-5.1-9.77-11.73-9.07-.19.02-.39.03-.58.04-2.4.07-3.6,1.37-3.6,3.93v25.21c4.22,1.18,6.44-1.88,7.63-5.3.95-2.72,1.03-5.77,1.61-8.64.13-.65.72-1.19,1.11-1.78.31.59.88,1.17.89,1.76.06,11.41.05,22.83.04,34.25,0,.93.16,2.16-1.17,2.04-.37-.03-.91-1.35-.92-2.08-.02-3.95-.52-7.85-2.65-11.15-1.03-1.61-2.85-2.82-4.53-3.79-1.18-.68-2.12-.1-2.11,1.7.07,8.1.02,16.21.05,24.31,0,4.29,1.22,5.79,5.45,6.78v2.14h-21.35v-2.08c4.78-1.1,5.43-1.77,5.56-6.92.14-5.74.07-11.48.07-17.22,0-12.76.02-25.53,0-38.3,0-1.26-.12-2.55-.36-3.8-.4-2.19-1.73-3.29-3.92-3.42-.26-.02-.52-.03-.77-.1-.18-.04-.36-.15-.57-.23h0v.03Z"/>
    <path class="st3" d="M412.58,334.69c.07.44.17.81.18,1.2.14,7.54.29,15.08.35,22.61,0,.6-.66,1.2-1.01,1.81-.31-.57-.82-1.12-.9-1.73-.69-5.89-2.17-11.49-6.01-16.02-1.15-1.35-3.01-2.39-4.71-2.81-3.23-.8-5.25,2.16-6.47,6.35-1.74,5.97,2.7,12.26,6,15.14,4.5,3.93,9.03,7.89,12.14,13.16,2,3.39,2.8,7.26,3.35,11.21.69,4.96.11,9.75-1.18,14.48-1.05,3.86-2.86,7.35-5.76,10.07-3.79,3.56-9.24,3.79-13.78.65-.16-.11-.28-.29-.44-.4-3.59-2.59-3.91-2.49-5.93,1.57-.22.42-.78.67-1.18.99-.2-.43-.57-.86-.57-1.3-.03-8.64-.03-17.28.02-25.92,0-.48.54-.97.83-1.45.26.44.66.86.75,1.34,1.02,5.31,1.8,10.7,4.49,15.48,1.7,3.02,3.51,5.91,7.08,6.99,2.51.75,4.36-.21,5.75-2.14,3.09-4.3,3.25-9.07,1.53-13.94-1.26-3.56-3.75-6.2-6.5-8.6-5.23-4.57-10.23-9.39-12.38-16.39-2.53-8.2-2.49-16.43,1.11-24.29,1.12-2.44,2.89-4.89,4.98-6.45,4.15-3.09,8.81-2.08,13.35,2.13,1.98,1.84,2.58,1.59,3.32-1.08.26-.92-.48-2.67,1.59-2.65h.02-.02Z"/>
    <path class="st3" d="M298.01,325.75v2.36h-27.78c-.42-1.54-.35-2.43,1.66-2.5,3.67-.13,5.38-2.1,5.41-5.9.13-17.01.27-34.02.36-51.03.02-2.69-.17-5.39-.38-8.07-.23-2.98-2.07-4.63-5.06-4.69-2.29-.04-2.34-.1-2-2.76h27.57c.53,2.78.47,3.03-2.09,2.8-2.58-.22-4.38,1.62-4.68,4.29-.24,2.13-.41,4.28-.41,6.42-.03,16.62-.02,33.24,0,49.86,0,1.74.17,3.48.4,5.2.27,2.06,2.18,3.55,4.85,3.88.63.08,1.28.08,2.15.13h0Z"/>
    <path class="st3" d="M95.58,339.04c-.35.07-.72.18-1.11.2-2.68.17-4.11,1.62-4.3,4.44-.07,1.01-.02,2.02-.02,3.03,0,18.29,0,36.58-.02,54.87,0,4.66.32,6.52,5.53,7.14.03.37.09.76.09,1.15,0,.32-.07.64-.13,1.18h-20.1c-.82,0-1.73.23-1.8-1.16-.07-1.29.69-1.36,1.59-1.46,2.76-.32,4.11-2.07,4.11-5.3v-50.82c0-2.57.03-5.13-.02-7.7-.08-3.58-1.17-4.76-4.59-5.46-.45-.1-.92-1.05-1.04-1.68-.22-1.09.52-1.31,1.43-1.31,5.07.03,10.14.02,15.21.02.97,0,1.95.02,2.92,0,2.58-.02,2.62.03,2.22,2.82l.02.03h.01Z"/>
  </g>
  <g>
    <path class="st0" d="M191.52,162.17c-2.59-4.5-5.03-9.11-7.79-13.5-5.46-8.68-10.85-17.43-16.73-25.81-5.41-7.72-11.45-14.98-17.14-22.49-.9-1.19-1.43-1.09-2.46-.21-6.3,5.4-10.99,12.16-15.2,19.33-.87,1.5-1.57,3.11-2.5,4.57-.87,1.35-.52,1.88.83,2.48,8.8,3.94,17.68,7.75,26.32,12.05,7.38,3.67,14.35,8.17,20.63,13.7.68.6,1.31,1.27,1.82,2.08-3.1-2.04-6.17-4.12-9.3-6.11-7.65-4.85-15.59-9.14-23.94-12.57-5.3-2.18-10.62-4.33-15.95-6.45-2.56-1.01-2.6-.97-3.71,1.66-1.61,3.81-3.18,7.63-4.88,11.71,2.87.73,5.42,1.2,7.85,2.02,7.52,2.55,14.96,5.36,22.52,7.81,3.05.99,6.28,1.48,9.47,1.92,9.89,1.36,19.12,4.39,26.85,11.24,1.03.92,1.91,2.02,2.83,3.06.34.39.62.86.82,1.47-8.14-8.32-17.97-12.46-29.28-13.08,10.16,6,20.6,11.52,29.19,20.03-.46-.28-.94-.52-1.37-.83-8.18-5.91-16.89-10.86-25.91-15.21-1.88-.91-3.86-1.62-5.69-2.63-4.52-2.49-9.28-1.98-14.09-1.57-9.58.82-18.51,3.98-27.35,7.65-2.22.93-3.42,2.25-3.88,4.7-.97,5.23-2.26,10.38-1.93,15.81.08,1.32-.45,2.77-1.01,4.02-.7,1.57-1.97,1.58-2.61-.04-.64-1.58-1.17-3.38-1.12-5.07.1-3.83.58-7.64.92-11.47.07-.86.16-1.71.28-2.99-.93.42-1.57.66-2.15.99-19.38,10.7-37.2,23.61-52.78,39.76-1.37,1.42-2.8,2.86-4.45,3.86-.86.52-2.55.49-3.32-.08-.57-.42-.76-2.41-.31-3.19,1.7-2.91,3.42-5.92,5.7-8.31,9.39-9.8,20.24-17.66,31.51-24.95,8.06-5.21,16.36-9.9,25.2-13.53,1.76-.72,2.58-1.84,2.96-3.76.65-3.28,1.48-6.54,2.49-9.73.56-1.76.17-2.31-1.51-2.4-3.18-.17-6.36-.36-9.52-.75-.92-.11-2.32-.79-2.52-1.5-.43-1.57.22-3.37,1.92-3.67,3.03-.53,6.14-.69,9.22-.84,1.41-.06,2.83.41,4.25.39.52,0,1.27-.61,1.51-1.12,1.85-4.01,3.55-8.1,5.41-12.11.68-1.47.32-2.06-1.1-2.4-9.83-2.42-19.64-4.89-29.47-7.31-1.68-.42-3.41-.65-5.48-1.03.09.95.05,1.6.23,2.17,1.64,5.24,3.39,10.45,4.97,15.7.71,2.36,1.37,4.8,1.57,7.25.1,1.25-.55,2.97-1.45,3.79-1.33,1.2-2.91.18-3.98-.93-1.26-1.31-2.55-2.74-3.36-4.37-3.67-7.27-5.99-15.05-7.4-23.12-.29-1.68-.95-2.43-2.57-2.67-15.03-2.26-30.13-3.31-45.31-2.97-6.51.15-12.95.8-19.34,2.26-2.12.48-4.5.05-6.69-.37-.91-.18-2.21-1.44-2.23-2.25-.02-.83,1.16-2.19,2.06-2.46,3.1-.93,6.27-1.8,9.48-2.14,13.11-1.41,26.25-1.2,39.36-.03,7.04.62,14.03,1.91,21.04,2.9.7.1,1.41.18,2.45.32,0-.99.06-1.82,0-2.65-1.4-16.24.63-32.04,5.72-47.42,3.97-12,10.19-22.58,19.45-31.01,8.79-8.01,18.95-12.75,30.69-13.92,21.05-2.1,36.42,7.58,48.3,24.69,8.93,12.87,14.4,27.38,18.58,42.52,2.67,9.68,4.4,19.53,5.8,29.47.25,1.8.35,3.61.22,5.49-.49-2.27-.89-4.57-1.48-6.8-2.68-10.19-5.14-20.45-8.2-30.51-4.01-13.16-9.63-25.61-17.24-36.98-5.65-8.45-12.35-15.83-21.18-20.8-9.83-5.53-20.23-6.38-31.03-3.93-11.18,2.53-19.53,9.4-26.24,18.62-7.8,10.74-11.69,23.14-13.69,36.29-1.39,9.18-1.58,18.42-1.05,27.67.2,3.42.66,6.84,1.25,10.22.12.66,1.32,1.37,2.13,1.58,5.03,1.31,10.14,2.32,15.14,3.74,6.81,1.95,13.57,4.09,20.3,6.35,1.7.57,2.4.16,3.21-1.31,3.91-7.11,8.47-13.74,14.16-19.45,2.14-2.14,4.52-4.03,7-6.22-.28-.41-.57-.99-1-1.43-5.65-5.77-11.34-11.48-16.93-17.31-1.35-1.4-2.57-3.04-3.45-4.79-.95-1.9.17-3.51,2.27-3.52.94,0,2.07.13,2.78.67,2.51,1.88,5.19,3.67,7.23,6.04,4.36,5.07,8.41,10.44,12.49,15.76,1.05,1.37,1.93,1.82,3.59,1.09,4.18-1.84,8.58-2.37,13.13-2.3,7.55.12,13.01,4.06,17.51,9.87,5.7,7.38,9.15,15.94,11.68,24.92,2.76,9.81,4.6,19.77,4.83,30.02.04,1.74,0,3.48-.07,5.23-1.98-15.69-5.04-31.1-11.2-45.66-2.84-6.71-6.48-12.85-12.08-17.6-6.4-5.44-16.01-5.1-22.52-1.9-1.21.6-1.15,1.23-.41,2.34,7.18,10.73,14.56,21.33,21.32,32.34,5.19,8.45,9.58,17.41,14.25,26.2.92,1.74,1.46,3.7,2.16,5.57-.09.06-.19.11-.28.17h0l-.02-.03ZM144.17,153.41c-.07-.08-.17-.31-.32-.35-7.64-2.15-15.39-3.58-23.28-4.14-.47-.03-1.28.34-1.42.72-1.12,3.25-2.13,6.55-3.21,9.95,9.63-2.1,18.94-4.14,28.24-6.17h0Z"/>
    <path class="st0" d="M210.63,164.9c2.29-7.26,4.59-14.53,6.88-21.8-.16-.08-.32-.16-.47-.22-5.1,9.99-10.19,19.98-14.23,30.53-.22-.1-.42-.18-.64-.28,1.62-4.58,3.03-9.25,4.9-13.72,2.03-4.89,4.7-9.48,6.65-14.39,2.14-5.39,5.65-9.74,8.78-14.45,2.01-3.03,3.3-6.55,4.87-9.88,6.44-13.64,13.55-26.86,22.28-39.09,2.04-2.85,4.2-5.62,6.47-8.27.97-1.12,2.31-1.95,3.6-2.71.5-.29,1.57-.25,1.94.11.47.45.85,1.58.62,2.1-.78,1.74-1.66,3.51-2.86,4.94-2.56,3.04-5.59,5.68-7.97,8.86-2.97,3.97-5.61,8.23-8.14,12.53-3.79,6.43-7.37,13.01-11.02,19.53-.27.49-.42,1.05-.86,2.19,1.28-.86,2.07-1.37,2.84-1.91,12.66-8.98,25.9-9.87,39.63-2.97,4.75,2.39,8.62,5.99,11.88,10.27.77,1,1.53,1.36,2.8,1.29,6.49-.33,12.97-.52,19.87-.78.18-3.73.62-7.61.53-11.48-.32-14.2-1.77-28.26-5.5-41.98-2.53-9.3-5.74-18.34-11.15-26.31-4.21-6.19-9.43-11.15-16.79-12.99-8.24-2.05-15.75.19-22.66,4.72-9.15,6.02-16,14.47-21.95,23.72-6.51,10.11-11.83,20.92-16.05,32.25-2.49,6.7-4.44,13.63-6.56,20.48-2.95,9.49-5.34,19.13-6.53,29.05,0,.1-.14.18-.65.78.32-3.69.48-6.87.91-10,1.96-14.57,6.61-28.32,11.42-42.07,2.6-7.45,5.65-14.6,9.3-21.5,6.25-11.82,13.47-22.89,23.71-31.49,4.41-3.71,9.08-6.92,14.71-8.34,9.95-2.52,18.65-.02,26.42,6.79,7.95,6.96,12.63,16.15,16.43,25.87,4.5,11.51,7.33,23.54,8.66,35.87.93,8.61,1.32,17.3,1.85,25.96.09,1.55.74,1.9,1.99,2.08,12.16,1.82,23.77,5.36,34.41,11.91,13.43,8.29,22.43,20.16,26.59,35.87.36,1.36.62,2.75.87,4.13.22,1.29.8,2.02,2.08,2.57,14.23,6.03,28.04,12.94,40.92,21.72,6.44,4.39,12.59,9.24,17.81,15.21.97,1.11,1.92,2.52,2.16,3.93.19,1.05-.45,2.64-1.24,3.44-1,1.02-2.18.15-3.01-.81-1.78-2.04-3.62-4.03-5.3-6.16-6.55-8.31-15-14.14-23.93-19.13-8.21-4.59-16.75-8.57-25.16-12.78-.91-.46-1.91-.71-3.06-1.12-.08,1.82-.02,3.43-.26,4.99-.21,1.37-.55,2.79-1.16,4.02-1.25,2.52-3.67,2.61-5.23.28-2.09-3.14-2.51-6.81-2.48-10.45.02-2.24-.7-3.1-2.66-3.83-16.21-6.02-32.66-11.21-49.62-14.39-7.65-1.44-15.4-2.33-23.12-3.34-.7-.1-1.77.64-2.26,1.31-1.67,2.28-2.41,2.39-3.76-.04-.62-1.12-1.32-1.47-2.49-1.42-9.15.42-18.34.52-27.46,1.26-14.34,1.18-28.04,5.24-41.41,10.64-.93.38-1.89.69-2.84,1.03-.07-.16-.13-.31-.2-.47,1.96-.98,3.89-2.02,5.88-2.91,9.28-4.14,18.93-6.89,28.85-8.79,12.11-2.33,24.3-3.48,36.6-3.42,1.53,0,2.02-.59,2.41-2.14,1.81-7.22,1.56-14.29-.97-21.25-.66-1.82-1.52-3.59-2.5-5.24-.33-.56-1.39-1.1-2.01-.99-11.01,1.98-21.57,5.51-31.38,11.05-13.11,7.41-25.06,16.58-36.26,26.8-1.54,1.4-2.79,3.14-4.18,4.72-.15-.12-.31-.23-.46-.35.04-.2.03-.43.14-.59,4.15-6.1,9.14-11.34,14.72-16.04,7.34-6.18,15.2-11.5,23.43-16.28,8.48-4.93,17.44-8.62,26.89-10.97,1.57-.39,3.14-.79,4.71-1.15,1.1-.25,1.57-.69.66-1.75-8.07-9.39-18.11-13.96-30.22-12.55-6.94.8-12.71,4.57-18.29,8.9-6.11,4.75-8.91,11.59-12.07,18.28-2.02,4.29-3.96,8.63-5.8,13.01-1.32,3.13-2.41,6.36-3.62,9.55-.08.22-.23.4-.36.6-.08-.03-.17-.08-.26-.11v-.05h0ZM370.15,178.47c.38-3.38-1.16-9.62-3.3-14.02-5.44-11.17-14.21-18.77-24.67-24.38-4.34-2.33-8.94-4.23-13.59-5.79-4.09-1.37-8.42-2.01-12.64-2.97-1.14-.26-1.68.19-1.78,1.43-.12,1.61-.16,3.28-.62,4.79-.86,2.78-1.72,5.64-3.11,8.14-1.12,2.02-3.62,1.69-4.44-.5-.67-1.81-1.09-3.94-.86-5.84.28-2.35,1.34-4.6,2.07-6.88.34-1.06.87-2.27-.94-2.25-5.2.08-10.38.2-15.57.38-1.38.04-1.72.64-1,2.11,3.95,8.15,5.34,16.81,4.55,25.86-.26,2.98-.12,3.04,2.81,3.27,4.39.33,8.81.6,13.14,1.36,8.04,1.4,16.08,2.85,24,4.82,9.11,2.26,18.09,5.06,27.11,7.67,2.91.85,5.8,1.84,8.83,2.82h0v-.02Z"/>
    <path class="st0" d="M241.34,194.74c2.4,1.29,4.95,2.34,7.17,3.92,3.24,2.29,6.74,4.45,8.37,8.46.3.73.04,1.7.05,2.57-.89-.03-1.97.28-2.63-.15-1.01-.64-1.82-1.69-2.53-2.71-2.89-4.13-6.94-6.74-10.91-9.58-4.31-3.1-8.83-2.99-13.59-2.08-2.54.49-5.09.93-7.64,1.4-.03-.16-.07-.34-.1-.5,3.93-.9,7.85-1.8,11.78-2.69.02-.21.04-.42.06-.63-3.33-.89-6.66-1.77-9.99-2.66.03-.17.07-.34.11-.51,4.35.94,8.69,2.05,13.09,2.77,2.44.4,4.99.33,7.47.19,9.45-.52,18.89-.64,27.94,2.71,11.33,4.19,20.09,11.87,26.7,22.26,2.75,4.31,4.65,9.01,5.73,14.07.48,2.28-.25,3.86-1.89,4.25-1.57.38-3.48-.97-3.77-2.97-1.17-8.04-5.75-14.21-10.32-20.34-3.84-5.14-8.44-9.49-13.86-12.88-4.29-2.69-8.97-3.94-13.79-4.52-5.21-.63-10.49-.73-15.74-1.04-.54-.03-1.09.1-1.64.15-.02.19-.05.37-.07.56v-.03h0v-.02Z"/>
    <path class="st0" d="M204.83,105.87c-.67-4.65-1.7-9.29-1.96-13.96-.51-9.15-.9-18.33-.77-27.5.17-11.27,1.26-22.49,3.48-33.55.59-2.95,1.67-5.74,3.87-7.77.82-.76,2.39-1.54,3.16-1.19.76.34,1.44,2.17,1.27,3.19-.52,3.1-1.64,6.08-2.2,9.17-1.47,8.26-3.17,16.51-4.05,24.83-1.17,11.25-1.74,22.57-2.4,33.87-.25,4.28-.04,8.59-.04,12.89-.13,0-.26,0-.39.02h.03Z"/>
    <path class="st0" d="M195.8,182.57c3.26,3.29,6.29,3.85,9.48-.08.11,4.83,2.34,6.96,6.81,6.76-1.32,1.65-3.96,2.32-3.15,4.63.59,1.68,2.13,2.99,3.41,4.68-.6,0-1.26-.03-1.92,0-4.96.22-6.05,1.57-5.3,7.02-2.71-1.6-5.15-1.82-7.21,1.74-.33-4.32-2.96-5.56-6.35-6.07,1.32-3.36,2.91-6.68-1.9-9.14,4.35-1.65,6.27-4.71,6.13-9.55v.02h0Z"/>
    <path class="st0" d="M219.16,181.4c4.29-1.44,8.51-3.16,12.87-4.26,8.42-2.14,17-3.03,25.67-2.66,8.28.36,16.39,1.78,24.07,5.14,1.89.83,3.73,1.95,5.32,3.29,1.08.92,1.95,2.36,2.41,3.74.32.97.19,2.7-.42,3.25-.63.56-2.32.51-3.18.02-2.83-1.62-5.45-3.62-8.24-5.35-10.21-6.34-21.31-8.63-33.09-7.7-8.12.65-16.07,2.16-23.76,4.99-.47.17-.97.25-1.46.37-.07-.28-.13-.56-.2-.84h0Z"/>
    <path class="st0" d="M186.31,181.5c-3.75-.93-7.05-1.79-10.37-2.57-14.31-3.37-28.65-4.13-43.01-.31-2.57.68-5.1,1.59-7.69,2.22-.74.18-1.62-.24-2.42-.39.27-1.01.23-2.59.84-2.93,2.47-1.39,5.06-2.76,7.77-3.48,6.49-1.76,13.18-1.63,19.77-.98,7.2.73,14.41,1.78,21.5,3.28,4.34.92,8.45,2.95,12.67,4.49.22.08.39.28.94.68h0Z"/>
    <path class="st0" d="M186.51,186.57c-6.93.22-13.61,1.24-19.43,5.21-2.72,1.86-4.99,4.43-7.49,6.64-.82.73-1.64,1.53-2.59,2-.5.24-1.58.07-1.88-.33-.36-.48-.42-1.52-.17-2.14,1.32-3.29,4-5.31,6.89-6.83,7.09-3.71,14.74-4.94,22.6-4.97.68,0,1.37.26,2.06.41h.01Z"/>
    <path class="st0" d="M212.08,202.55c1.02.69,2.07,1.34,3.07,2.08,4.25,3.16,7.56,7.13,9.3,12.32.81,2.41.92,4.89-.25,7.24-.26.52-.92,1.16-1.38,1.13-.5-.02-1.22-.65-1.39-1.18-.37-1.12-.67-2.34-.64-3.51.13-5.21-1.72-9.55-4.99-13.36-1.28-1.49-2.57-2.97-3.86-4.45.05-.1.09-.19.14-.28h0Z"/>
    <path class="st0" d="M428.7,222.75c-.03,3.94,1.69,5.92,5.8,5.53-.05.19-.11.38-.16.57-.81.44-1.57,1.02-2.42,1.3-1.79.59-1.94,1.86-1.6,3.46.15.69.22,1.4.37,2.48-1.5-1.25-2.59-2.83-3.89-3.04-1.32-.22-2.86.89-4.6,1.53.68-1.57,1.9-3.05,1.73-4.36-.17-1.37-1.66-2.58-2.69-4.02,1.6.12,3.36.78,4.6.21,1.23-.58,1.94-2.39,2.87-3.66h0Z"/>
    <path class="st0" d="M266.08,99.8c-3.57,1.38-5.65,3.23-3.7,7.56-2.48-3.12-5.07-4.24-8.32-1.15-.02-.21-.02-.42-.04-.63.57-1.44,1.7-2.95,1.57-4.32-.12-1.27-1.57-2.41-2.5-3.95,3.62,1.55,5.88.23,7.26-3.58.04,4.02,1.61,6.2,5.72,6.08h.01Z"/>
    <path class="st0" d="M144.58,188.28c-3.54,1.57-5.21,3.71-3.25,7.79-2.62-2.82-5.21-4.08-8.44-.86,1.48-3.26,2.07-6.06-1.74-7.92.15-.11.29-.22.44-.34,1.48-.1,3.22.29,4.36-.41,1.12-.67,1.62-2.44,2.71-3.99-.17,4.27,1.82,5.97,5.9,5.72h.02Z"/>
    <path class="st0" d="M280.7,58.48c3.87,1.43,6.08-.04,7.54-3.83-.1,4.23,1.7,6.24,5.82,5.87-.07.2-.15.39-.23.59-.77.43-1.48,1.05-2.31,1.25-1.96.49-2.24,1.71-1.73,3.48.19.68.23,1.41.42,2.53-1.48-1.26-2.56-2.84-3.86-3.09-1.31-.23-2.84.87-4.86,1.6,2.33-3.18,2.81-5.94-.78-8.41h-.01Z"/>
    <path class="st0" d="M130.28,28.23c4.4.65,5.64-1.87,5.79-5.87,1.15,4.2,3.58,5.33,7.44,3.98-2.62,2.5-4.2,4.89-1.16,8.28-3.33-2.13-5.99-2.01-8.21,1.3,0-1.56.46-3.35-.13-4.59-.56-1.16-2.24-1.73-3.42-2.56-.1-.18-.2-.35-.3-.54h0Z"/>
    <path class="st0" d="M264.57,209.2c3.53,1.18,5.86.03,7.17-4.2.59,2.16.59,4.06,1.5,4.99s2.73.92,4.54,1.42c-1.57.93-3.33,1.42-4.02,2.58-.64,1.08-.13,2.9-.13,4.73-1.28-1.1-2.31-2.65-3.56-2.89-1.27-.24-2.77.8-4.48,1.38.61-1.59,1.72-3.1,1.54-4.42-.17-1.3-1.64-2.4-2.55-3.6h-.01Z"/>
    <path class="st0" d="M364.88,212.75c2.99-2.17,3.66-4.72,1.3-8.23,3.17,2.55,5.8,2.4,8.3-.99-1.28,3.88-.31,6.47,3.56,7.78-3.5.28-6.55.67-6.27,5.31-.84-1.29-1.42-3.06-2.59-3.74-1.12-.64-2.85-.14-4.31-.14h.01Z"/>
    <path class="st0" d="M167.71,78.94c3.92,1.07,6.3-.1,6.98-4.37.16.12.31.24.47.36.45,1.48.51,3.37,1.46,4.31.92.92,2.75.84,4.46,1.27-1.33.95-3.06,1.57-3.64,2.78-.56,1.15.08,2.91.25,5.21-2.46-3.85-5.14-3.6-8.28-1.31,2.45-3.5,1.72-6.09-1.71-8.26h0Z"/>
    <path class="st0" d="M298.73,184.84c-1.47-1.21-2.57-2.78-3.86-2.98-1.32-.2-2.83.96-4.83,1.76,2.06-3.11,3.28-5.88-.27-8.36.64,0,1.35-.18,1.92.03,1.79.67,2.96.23,3.69-1.66.27-.73.84-1.33,1.67-2.57-.11,4.21,1.34,6.5,5.45,6.01l-.12.56c-.73.44-1.42,1.03-2.21,1.28-1.72.55-2.19,1.64-1.76,3.37.17.69.18,1.44.31,2.56h0Z"/>
    <path class="st0" d="M63.88,157.43c3.93-.06,5.66-2.06,5.87-5.98,1.22,3.97,3.69,4.82,7.14,3.96-.95,1.15-2.44,2.19-2.68,3.48-.23,1.25.83,2.76,1.54,4.79-3.32-2.7-5.88-2.09-8.1,1.38,1.14-3.93.25-6.49-3.78-7.62h0Z"/>
    <path class="st0" d="M69.38,95.2c-1.3,2.98-.92,5.86,1.16,8.63-3.71-1.51-6.39-1.09-7.74,2.88-.34-1.5-.27-3.4-1.16-4.39-.86-.98-2.68-1.03-4.16-1.52,1.33-.81,3.08-1.3,3.71-2.45.63-1.13.14-2.94.36-4.82,2.12,3.55,4.69,4.03,7.84,1.66h-.01Z"/>
    <path class="st0" d="M334.05,128.93c2.01-3.39,1.92-5.99-1.55-8.15,3.71,1.01,5.91-.26,7.07-3.99.04,4.16,2.23,5.52,5.95,5.49-3.41,1.45-5.14,3.59-3.31,7.58-2.5-3.16-5.02-3.87-8.17-.92h0Z"/>
    <path class="st0" d="M217.49.86c-.12,2.76-.65,5.38,2.52,6.61-2.76.86-5.03,1.98-4.93,5.32-.63-1.09-1.03-2.55-1.96-3.17-.89-.6-2.31-.33-3.71-.47.81-1.31,1.88-2.4,2.12-3.67.23-1.2-.42-2.59-.71-4.06,1.2.63,2.3,1.68,3.32,1.61,1.04-.07,2.01-1.25,3.32-2.17h.03Z"/>
  </g>
  <g>
    <path class="st1" d="M199.01,163.9c-2.59-4.5-5.03-9.11-7.79-13.5-5.46-8.68-10.85-17.43-16.73-25.81-5.41-7.72-11.45-14.98-17.14-22.49-.9-1.19-1.43-1.09-2.46-.21-6.3,5.4-10.99,12.16-15.2,19.33-.87,1.5-1.57,3.11-2.5,4.57-.87,1.35-.52,1.88.83,2.48,8.8,3.94,17.68,7.75,26.32,12.05,7.38,3.67,14.35,8.17,20.63,13.7.68.6,1.31,1.27,1.82,2.08-3.1-2.04-6.17-4.12-9.3-6.11-7.65-4.85-15.59-9.14-23.94-12.57-5.3-2.18-10.62-4.33-15.95-6.45-2.56-1.01-2.6-.97-3.71,1.66-1.61,3.81-3.18,7.63-4.88,11.71,2.87.73,5.42,1.2,7.85,2.02,7.52,2.55,14.96,5.36,22.52,7.81,3.05.99,6.28,1.48,9.47,1.92,9.89,1.36,19.12,4.39,26.85,11.24,1.03.92,1.91,2.02,2.83,3.06.34.39.62.86.82,1.47-8.14-8.32-17.97-12.46-29.28-13.08,10.16,6,20.6,11.52,29.19,20.03-.46-.28-.94-.52-1.37-.83-8.18-5.91-16.89-10.86-25.91-15.21-1.88-.91-3.86-1.62-5.69-2.63-4.52-2.49-9.28-1.98-14.09-1.57-9.58.82-18.51,3.98-27.35,7.65-2.22.93-3.42,2.25-3.88,4.7-.97,5.23-2.26,10.38-1.93,15.81.08,1.32-.45,2.77-1.01,4.02-.7,1.57-1.97,1.58-2.61-.04-.64-1.58-1.17-3.38-1.12-5.07.1-3.83.58-7.64.92-11.47.07-.86.16-1.71.28-2.99-.93.42-1.57.66-2.15.99-19.38,10.7-37.2,23.61-52.78,39.76-1.37,1.42-2.8,2.86-4.45,3.86-.86.52-2.55.49-3.32-.08-.57-.42-.76-2.41-.31-3.19,1.7-2.91,3.42-5.92,5.7-8.31,9.39-9.8,20.24-17.66,31.51-24.95,8.06-5.21,16.36-9.9,25.2-13.53,1.76-.72,2.58-1.84,2.96-3.76.65-3.28,1.48-6.54,2.49-9.73.56-1.76.17-2.31-1.51-2.4-3.18-.17-6.36-.36-9.52-.75-.92-.11-2.32-.79-2.52-1.5-.43-1.57.22-3.37,1.92-3.67,3.03-.53,6.14-.69,9.22-.84,1.41-.06,2.83.41,4.25.39.52,0,1.27-.61,1.51-1.12,1.85-4.01,3.55-8.1,5.41-12.11.68-1.47.32-2.06-1.1-2.4-9.83-2.42-19.64-4.89-29.47-7.31-1.68-.42-3.41-.65-5.48-1.03.09.95.05,1.6.23,2.17,1.64,5.24,3.39,10.45,4.97,15.7.71,2.36,1.37,4.8,1.57,7.25.1,1.25-.55,2.97-1.45,3.79-1.33,1.2-2.91.18-3.98-.93-1.26-1.31-2.55-2.74-3.36-4.37-3.67-7.27-5.99-15.05-7.4-23.12-.29-1.68-.95-2.43-2.57-2.67-15.03-2.26-30.13-3.31-45.31-2.97-6.51.15-12.95.8-19.34,2.26-2.12.48-4.5.05-6.69-.37-.91-.18-2.21-1.44-2.23-2.25-.02-.83,1.16-2.19,2.06-2.46,3.1-.93,6.27-1.8,9.48-2.14,13.11-1.41,26.25-1.2,39.36-.03,7.04.62,14.03,1.91,21.04,2.9.7.1,1.41.18,2.45.32,0-.99.06-1.82,0-2.65-1.4-16.24.63-32.04,5.72-47.42,3.97-12,10.19-22.58,19.45-31.01,8.79-8.01,18.95-12.75,30.69-13.92,21.05-2.1,36.42,7.58,48.3,24.69,8.93,12.87,14.4,27.38,18.58,42.52,2.67,9.68,4.4,19.53,5.8,29.47.25,1.8.35,3.61.22,5.49-.49-2.27-.89-4.57-1.48-6.8-2.68-10.19-5.14-20.45-8.2-30.51-4.01-13.16-9.63-25.61-17.24-36.98-5.65-8.45-12.35-15.83-21.18-20.8-9.83-5.53-20.23-6.38-31.03-3.93-11.18,2.53-19.53,9.4-26.24,18.62-7.8,10.74-11.69,23.14-13.69,36.29-1.39,9.18-1.58,18.42-1.05,27.67.2,3.42.66,6.84,1.25,10.22.12.66,1.32,1.37,2.13,1.58,5.03,1.31,10.14,2.32,15.14,3.74,6.81,1.95,13.57,4.09,20.3,6.35,1.7.57,2.4.16,3.21-1.31,3.91-7.11,8.47-13.74,14.16-19.45,2.14-2.14,4.52-4.03,7-6.22-.28-.41-.57-.99-1-1.43-5.65-5.77-11.34-11.48-16.93-17.31-1.35-1.4-2.57-3.04-3.45-4.79-.95-1.9.17-3.51,2.27-3.52.94,0,2.07.13,2.78.67,2.51,1.88,5.19,3.67,7.23,6.04,4.36,5.07,8.41,10.44,12.49,15.76,1.05,1.37,1.93,1.82,3.59,1.09,4.18-1.84,8.58-2.37,13.13-2.3,7.55.12,13.01,4.06,17.51,9.87,5.7,7.38,9.15,15.94,11.68,24.92,2.76,9.81,4.6,19.77,4.83,30.02.04,1.74,0,3.48-.07,5.23-1.98-15.69-5.04-31.1-11.2-45.66-2.84-6.71-6.48-12.85-12.08-17.6-6.4-5.44-16.01-5.1-22.52-1.9-1.21.6-1.15,1.23-.41,2.34,7.18,10.73,14.56,21.33,21.32,32.34,5.19,8.45,9.58,17.41,14.25,26.2.92,1.74,1.46,3.7,2.16,5.57-.09.06-.19.11-.28.17h0l-.02-.03ZM151.66,155.14c-.07-.08-.17-.31-.32-.35-7.64-2.15-15.39-3.58-23.28-4.14-.47-.03-1.28.34-1.42.72-1.12,3.25-2.13,6.55-3.21,9.95,9.63-2.1,18.94-4.14,28.24-6.17h0Z"/>
    <path class="st1" d="M218.13,166.63c2.29-7.26,4.59-14.53,6.88-21.8-.16-.08-.32-.16-.47-.22-5.1,9.99-10.19,19.98-14.23,30.53-.22-.1-.42-.18-.64-.28,1.62-4.58,3.03-9.25,4.9-13.72,2.03-4.89,4.7-9.48,6.65-14.39,2.14-5.39,5.65-9.74,8.78-14.45,2.01-3.03,3.3-6.55,4.87-9.88,6.44-13.64,13.55-26.86,22.28-39.09,2.04-2.85,4.2-5.62,6.47-8.27.97-1.12,2.31-1.95,3.6-2.71.5-.29,1.57-.25,1.94.11.47.45.85,1.58.62,2.1-.78,1.74-1.66,3.51-2.86,4.94-2.56,3.04-5.59,5.68-7.97,8.86-2.97,3.97-5.61,8.23-8.14,12.53-3.79,6.43-7.37,13.01-11.02,19.53-.27.49-.42,1.05-.86,2.19,1.28-.86,2.07-1.37,2.84-1.91,12.66-8.98,25.9-9.87,39.63-2.97,4.75,2.39,8.62,5.99,11.88,10.27.77,1,1.53,1.36,2.8,1.29,6.49-.33,12.97-.52,19.87-.78.18-3.73.62-7.61.53-11.48-.32-14.2-1.77-28.26-5.5-41.98-2.53-9.3-5.74-18.34-11.15-26.31-4.21-6.19-9.43-11.15-16.79-12.99-8.24-2.05-15.75.19-22.66,4.72-9.15,6.02-16,14.47-21.95,23.72-6.51,10.11-11.83,20.92-16.05,32.25-2.49,6.7-4.44,13.63-6.56,20.48-2.95,9.49-5.34,19.13-6.53,29.05,0,.1-.14.18-.65.78.32-3.69.48-6.87.91-10,1.96-14.57,6.61-28.32,11.42-42.07,2.6-7.45,5.65-14.6,9.3-21.5,6.25-11.82,13.47-22.89,23.71-31.49,4.41-3.71,9.08-6.92,14.71-8.34,9.95-2.52,18.65-.02,26.42,6.79,7.95,6.96,12.63,16.15,16.43,25.87,4.5,11.51,7.33,23.54,8.66,35.87.93,8.61,1.32,17.3,1.85,25.96.09,1.55.74,1.9,1.99,2.08,12.16,1.82,23.77,5.36,34.41,11.91,13.43,8.29,22.43,20.16,26.59,35.87.36,1.36.62,2.75.87,4.13.22,1.29.8,2.02,2.08,2.57,14.23,6.03,28.04,12.94,40.92,21.72,6.44,4.39,12.59,9.24,17.81,15.21.97,1.11,1.92,2.52,2.16,3.93.19,1.05-.45,2.64-1.24,3.44-1,1.02-2.18.15-3.01-.81-1.78-2.04-3.62-4.03-5.3-6.16-6.55-8.31-15-14.14-23.93-19.13-8.21-4.59-16.75-8.57-25.16-12.78-.91-.46-1.91-.71-3.06-1.12-.08,1.82-.02,3.43-.26,4.99-.21,1.37-.55,2.79-1.16,4.02-1.25,2.52-3.67,2.61-5.23.28-2.09-3.14-2.51-6.81-2.48-10.45.02-2.24-.7-3.1-2.66-3.83-16.21-6.02-32.66-11.21-49.62-14.39-7.65-1.44-15.4-2.33-23.12-3.34-.7-.1-1.77.64-2.26,1.31-1.67,2.28-2.41,2.39-3.76-.04-.62-1.12-1.32-1.47-2.49-1.42-9.15.42-18.34.52-27.46,1.26-14.34,1.18-28.04,5.24-41.41,10.64-.93.38-1.89.69-2.84,1.03-.07-.16-.13-.31-.2-.47,1.96-.98,3.89-2.02,5.88-2.91,9.28-4.14,18.93-6.89,28.85-8.79,12.11-2.33,24.3-3.48,36.6-3.42,1.53,0,2.02-.59,2.41-2.14,1.81-7.22,1.56-14.29-.97-21.25-.66-1.82-1.52-3.59-2.5-5.24-.33-.56-1.39-1.1-2.01-.99-11.01,1.98-21.57,5.51-31.38,11.05-13.11,7.41-25.06,16.58-36.26,26.8-1.54,1.4-2.79,3.14-4.18,4.72-.15-.12-.31-.23-.46-.35.04-.2.03-.43.14-.59,4.15-6.1,9.14-11.34,14.72-16.04,7.34-6.18,15.2-11.5,23.43-16.28,8.48-4.93,17.44-8.62,26.89-10.97,1.57-.39,3.14-.79,4.71-1.15,1.1-.25,1.57-.69.66-1.75-8.07-9.39-18.11-13.96-30.22-12.55-6.94.8-12.71,4.57-18.29,8.9-6.11,4.75-8.91,11.59-12.07,18.28-2.02,4.29-3.96,8.63-5.8,13.01-1.32,3.13-2.41,6.36-3.62,9.55-.08.22-.23.4-.36.6-.08-.03-.17-.08-.26-.11v-.05h0ZM377.64,180.2c.38-3.38-1.16-9.62-3.3-14.02-5.44-11.17-14.21-18.77-24.67-24.38-4.34-2.33-8.94-4.23-13.59-5.79-4.09-1.37-8.42-2.01-12.64-2.97-1.14-.26-1.68.19-1.78,1.43-.12,1.61-.16,3.28-.62,4.79-.86,2.78-1.72,5.64-3.11,8.14-1.12,2.02-3.62,1.69-4.44-.5-.67-1.81-1.09-3.94-.86-5.84.28-2.35,1.34-4.6,2.07-6.88.34-1.06.87-2.27-.94-2.25-5.2.08-10.38.2-15.57.38-1.38.04-1.72.64-1,2.11,3.95,8.15,5.34,16.81,4.55,25.86-.26,2.98-.12,3.04,2.81,3.27,4.39.33,8.81.6,13.14,1.36,8.04,1.4,16.08,2.85,24,4.82,9.11,2.26,18.09,5.06,27.11,7.67,2.91.85,5.8,1.84,8.83,2.82h0v-.02Z"/>
    <path class="st1" d="M248.84,196.47c2.4,1.29,4.95,2.34,7.17,3.92,3.24,2.29,6.74,4.45,8.37,8.46.3.73.04,1.7.05,2.57-.89-.03-1.97.28-2.63-.15-1.01-.64-1.82-1.69-2.53-2.71-2.89-4.13-6.94-6.74-10.91-9.58-4.31-3.1-8.83-2.99-13.59-2.08-2.54.49-5.09.93-7.64,1.4-.03-.16-.07-.34-.1-.5,3.93-.9,7.85-1.8,11.78-2.69.02-.21.04-.42.06-.63-3.33-.89-6.66-1.77-9.99-2.66.03-.17.07-.34.11-.51,4.35.94,8.69,2.05,13.09,2.77,2.44.4,4.99.33,7.47.19,9.45-.52,18.89-.64,27.94,2.71,11.33,4.19,20.09,11.87,26.7,22.26,2.75,4.31,4.65,9.01,5.73,14.07.48,2.28-.25,3.86-1.89,4.25-1.57.38-3.48-.97-3.77-2.97-1.17-8.04-5.75-14.21-10.32-20.34-3.84-5.14-8.44-9.49-13.86-12.88-4.29-2.69-8.97-3.94-13.79-4.52-5.21-.63-10.49-.73-15.74-1.04-.54-.03-1.09.1-1.64.15-.02.19-.05.37-.07.56v-.03h0v-.02Z"/>
    <path class="st1" d="M212.32,107.6c-.67-4.65-1.7-9.29-1.96-13.96-.51-9.15-.9-18.33-.77-27.5.17-11.27,1.26-22.49,3.48-33.55.59-2.95,1.67-5.74,3.87-7.77.82-.76,2.39-1.54,3.16-1.19.76.34,1.44,2.17,1.27,3.19-.52,3.1-1.64,6.08-2.2,9.17-1.47,8.26-3.17,16.51-4.05,24.83-1.17,11.25-1.74,22.57-2.4,33.87-.25,4.28-.04,8.59-.04,12.89-.13,0-.26,0-.39.02h.03Z"/>
    <path class="st1" d="M203.3,184.3c3.26,3.29,6.29,3.85,9.48-.08.11,4.83,2.34,6.96,6.81,6.76-1.32,1.65-3.96,2.32-3.15,4.63.59,1.68,2.13,2.99,3.41,4.68-.6,0-1.26-.03-1.92,0-4.96.22-6.05,1.57-5.3,7.02-2.71-1.6-5.15-1.82-7.21,1.74-.33-4.32-2.96-5.56-6.35-6.07,1.32-3.36,2.91-6.68-1.9-9.14,4.35-1.65,6.27-4.71,6.13-9.55v.02h0Z"/>
    <path class="st1" d="M226.65,183.13c4.29-1.44,8.51-3.16,12.87-4.26,8.42-2.14,17-3.03,25.67-2.66,8.28.36,16.39,1.78,24.07,5.14,1.89.83,3.73,1.95,5.32,3.29,1.08.92,1.95,2.36,2.41,3.74.32.97.19,2.7-.42,3.25-.63.56-2.32.51-3.18.02-2.83-1.62-5.45-3.62-8.24-5.35-10.21-6.34-21.31-8.63-33.09-7.7-8.12.65-16.07,2.16-23.76,4.99-.47.17-.97.25-1.46.37-.07-.28-.13-.56-.2-.84h0Z"/>
    <path class="st1" d="M193.81,183.23c-3.75-.93-7.05-1.79-10.37-2.57-14.31-3.37-28.65-4.13-43.01-.31-2.57.68-5.1,1.59-7.69,2.22-.74.18-1.62-.24-2.42-.39.27-1.01.23-2.59.84-2.93,2.47-1.39,5.06-2.76,7.77-3.48,6.49-1.76,13.18-1.63,19.77-.98,7.2.73,14.41,1.78,21.5,3.28,4.34.92,8.45,2.95,12.67,4.49.22.08.39.28.94.68h0Z"/>
    <path class="st1" d="M194.01,188.3c-6.93.22-13.61,1.24-19.43,5.21-2.72,1.86-4.99,4.43-7.49,6.64-.82.73-1.64,1.53-2.59,2-.5.24-1.58.07-1.88-.33-.36-.48-.42-1.52-.17-2.14,1.32-3.29,4-5.31,6.89-6.83,7.09-3.71,14.74-4.94,22.6-4.97.68,0,1.37.26,2.06.41h.01Z"/>
    <path class="st1" d="M219.58,204.27c1.02.69,2.07,1.34,3.07,2.08,4.25,3.16,7.56,7.13,9.3,12.32.81,2.41.92,4.89-.25,7.24-.26.52-.92,1.16-1.38,1.13-.5-.02-1.22-.65-1.39-1.18-.37-1.12-.67-2.34-.64-3.51.13-5.21-1.72-9.55-4.99-13.36-1.28-1.49-2.57-2.97-3.86-4.45.05-.1.09-.19.14-.28h0Z"/>
    <path class="st1" d="M436.19,224.48c-.03,3.94,1.69,5.92,5.8,5.53-.05.19-.11.38-.16.57-.81.44-1.57,1.02-2.42,1.3-1.79.59-1.94,1.86-1.6,3.46.15.69.22,1.4.37,2.48-1.5-1.25-2.59-2.83-3.89-3.04-1.32-.22-2.86.89-4.6,1.53.68-1.57,1.9-3.05,1.73-4.36-.17-1.37-1.66-2.58-2.69-4.02,1.6.12,3.36.78,4.6.21,1.23-.58,1.94-2.39,2.87-3.66h0Z"/>
    <path class="st1" d="M273.58,101.53c-3.57,1.38-5.65,3.23-3.7,7.56-2.48-3.12-5.07-4.24-8.32-1.15-.02-.21-.02-.42-.04-.63.57-1.44,1.7-2.95,1.57-4.32-.12-1.27-1.57-2.41-2.5-3.95,3.62,1.55,5.88.23,7.26-3.58.04,4.02,1.61,6.2,5.72,6.08h.01Z"/>
    <path class="st1" d="M152.07,190.01c-3.54,1.57-5.21,3.71-3.25,7.79-2.62-2.82-5.21-4.08-8.44-.86,1.48-3.26,2.07-6.06-1.74-7.92.15-.11.29-.22.44-.34,1.48-.1,3.22.29,4.36-.41,1.12-.67,1.62-2.44,2.71-3.99-.17,4.27,1.82,5.97,5.9,5.72h.02Z"/>
    <path class="st1" d="M288.2,60.21c3.87,1.43,6.08-.04,7.54-3.83-.1,4.23,1.7,6.24,5.82,5.87-.07.2-.15.39-.23.59-.77.43-1.48,1.05-2.31,1.25-1.96.49-2.24,1.71-1.73,3.48.19.68.23,1.41.42,2.53-1.48-1.26-2.56-2.84-3.86-3.09-1.31-.23-2.84.87-4.86,1.6,2.33-3.18,2.81-5.94-.78-8.41h-.01Z"/>
    <path class="st1" d="M137.77,29.96c4.4.65,5.64-1.87,5.79-5.87,1.15,4.2,3.58,5.33,7.44,3.98-2.62,2.5-4.2,4.89-1.16,8.28-3.33-2.13-5.99-2.01-8.21,1.3,0-1.56.46-3.35-.13-4.59-.56-1.16-2.24-1.73-3.42-2.56-.1-.18-.2-.35-.3-.54h0Z"/>
    <path class="st1" d="M272.06,210.93c3.53,1.18,5.86.03,7.17-4.2.59,2.16.59,4.06,1.5,4.99s2.73.92,4.54,1.42c-1.57.93-3.33,1.42-4.02,2.58-.64,1.08-.13,2.9-.13,4.73-1.28-1.1-2.31-2.65-3.56-2.89-1.27-.24-2.77.8-4.48,1.38.61-1.59,1.72-3.1,1.54-4.42-.17-1.3-1.64-2.4-2.55-3.6h-.01Z"/>
    <path class="st1" d="M372.37,214.48c2.99-2.17,3.66-4.72,1.3-8.23,3.17,2.55,5.8,2.4,8.3-.99-1.28,3.88-.31,6.47,3.56,7.78-3.5.28-6.55.67-6.27,5.31-.84-1.29-1.42-3.06-2.59-3.74-1.12-.64-2.85-.14-4.31-.14h.01Z"/>
    <path class="st1" d="M175.2,80.67c3.92,1.07,6.3-.1,6.98-4.37.16.12.31.24.47.36.45,1.48.51,3.37,1.46,4.31.92.92,2.75.84,4.46,1.27-1.33.95-3.06,1.57-3.64,2.78-.56,1.15.08,2.91.25,5.21-2.46-3.85-5.14-3.6-8.28-1.31,2.45-3.5,1.72-6.09-1.71-8.26h0Z"/>
    <path class="st1" d="M306.23,186.57c-1.47-1.21-2.57-2.78-3.86-2.98-1.32-.2-2.83.96-4.83,1.76,2.06-3.11,3.28-5.88-.27-8.36.64,0,1.35-.18,1.92.03,1.79.67,2.96.23,3.69-1.66.27-.73.84-1.33,1.67-2.57-.11,4.21,1.34,6.5,5.45,6.01l-.12.56c-.73.44-1.42,1.03-2.21,1.28-1.72.55-2.19,1.64-1.76,3.37.17.69.18,1.44.31,2.56h0Z"/>
    <path class="st1" d="M71.38,159.16c3.93-.06,5.66-2.06,5.87-5.98,1.22,3.97,3.69,4.82,7.14,3.96-.95,1.15-2.44,2.19-2.68,3.48-.23,1.25.83,2.76,1.54,4.79-3.32-2.7-5.88-2.09-8.1,1.38,1.14-3.93.25-6.49-3.78-7.62h0Z"/>
    <path class="st1" d="M76.87,96.93c-1.3,2.98-.92,5.86,1.16,8.63-3.71-1.51-6.39-1.09-7.74,2.88-.34-1.5-.27-3.4-1.16-4.39-.86-.98-2.68-1.03-4.16-1.52,1.33-.81,3.08-1.3,3.71-2.45.63-1.13.14-2.94.36-4.82,2.12,3.55,4.69,4.03,7.84,1.66h-.01Z"/>
    <path class="st1" d="M341.55,130.66c2.01-3.39,1.92-5.99-1.55-8.15,3.71,1.01,5.91-.26,7.07-3.99.04,4.16,2.23,5.52,5.95,5.49-3.41,1.45-5.14,3.59-3.31,7.58-2.5-3.16-5.02-3.87-8.17-.92h0Z"/>
    <path class="st1" d="M224.98,2.59c-.12,2.76-.65,5.38,2.52,6.61-2.76.86-5.03,1.98-4.93,5.32-.63-1.09-1.03-2.55-1.96-3.17-.89-.6-2.31-.33-3.71-.47.81-1.31,1.88-2.4,2.12-3.67.23-1.2-.42-2.59-.71-4.06,1.2.63,2.3,1.68,3.32,1.61,1.04-.07,2.01-1.25,3.32-2.17h.03Z"/>
  </g>
  <g>
    <path class="st2" d="M196.51,161.31c-2.59-4.5-5.03-9.11-7.79-13.5-5.46-8.68-10.85-17.43-16.73-25.81-5.41-7.72-11.45-14.98-17.14-22.49-.9-1.19-1.43-1.09-2.46-.21-6.3,5.4-10.99,12.16-15.2,19.33-.87,1.5-1.57,3.11-2.5,4.57-.87,1.35-.52,1.88.83,2.48,8.8,3.94,17.68,7.75,26.32,12.05,7.38,3.67,14.35,8.17,20.63,13.7.68.6,1.31,1.27,1.82,2.08-3.1-2.04-6.17-4.12-9.3-6.11-7.65-4.85-15.59-9.14-23.94-12.57-5.3-2.18-10.62-4.33-15.95-6.45-2.56-1.01-2.6-.97-3.71,1.66-1.61,3.81-3.18,7.63-4.88,11.71,2.87.73,5.42,1.2,7.85,2.02,7.52,2.55,14.96,5.36,22.52,7.81,3.05.99,6.28,1.48,9.47,1.92,9.89,1.36,19.12,4.39,26.85,11.24,1.03.92,1.91,2.02,2.83,3.06.34.39.62.86.82,1.47-8.14-8.32-17.97-12.46-29.28-13.08,10.16,6,20.6,11.52,29.19,20.03-.46-.28-.94-.52-1.37-.83-8.18-5.91-16.89-10.86-25.91-15.21-1.88-.91-3.86-1.62-5.69-2.63-4.52-2.49-9.28-1.98-14.09-1.57-9.58.82-18.51,3.98-27.35,7.65-2.22.93-3.42,2.25-3.88,4.7-.97,5.23-2.26,10.38-1.93,15.81.08,1.32-.45,2.77-1.01,4.02-.7,1.57-1.97,1.58-2.61-.04-.64-1.58-1.17-3.38-1.12-5.07.1-3.83.58-7.64.92-11.47.07-.86.16-1.71.28-2.99-.93.42-1.57.66-2.15.99-19.38,10.7-37.2,23.61-52.78,39.76-1.37,1.42-2.8,2.86-4.45,3.86-.86.52-2.55.49-3.32-.08-.57-.42-.76-2.41-.31-3.19,1.7-2.91,3.42-5.92,5.7-8.31,9.39-9.8,20.24-17.66,31.51-24.95,8.06-5.21,16.36-9.9,25.2-13.53,1.76-.72,2.58-1.84,2.96-3.76.65-3.28,1.48-6.54,2.49-9.73.56-1.76.17-2.31-1.51-2.4-3.18-.17-6.36-.36-9.52-.75-.92-.11-2.32-.79-2.52-1.5-.43-1.57.22-3.37,1.92-3.67,3.03-.53,6.14-.69,9.22-.84,1.41-.06,2.83.41,4.25.39.52,0,1.27-.61,1.51-1.12,1.85-4.01,3.55-8.1,5.41-12.11.68-1.47.32-2.06-1.1-2.4-9.83-2.42-19.64-4.89-29.47-7.31-1.68-.42-3.41-.65-5.48-1.03.09.95.05,1.6.23,2.17,1.64,5.24,3.39,10.45,4.97,15.7.71,2.36,1.37,4.8,1.57,7.25.1,1.25-.55,2.97-1.45,3.79-1.33,1.2-2.91.18-3.98-.93-1.26-1.31-2.55-2.74-3.36-4.37-3.67-7.27-5.99-15.05-7.4-23.12-.29-1.68-.95-2.43-2.57-2.67-15.03-2.26-30.13-3.31-45.31-2.97-6.51.15-12.95.8-19.34,2.26-2.12.48-4.5.05-6.69-.37-.91-.18-2.21-1.44-2.23-2.25-.02-.83,1.16-2.19,2.06-2.46,3.1-.93,6.27-1.8,9.48-2.14,13.11-1.41,26.25-1.2,39.36-.03,7.04.62,14.03,1.91,21.04,2.9.7.1,1.41.18,2.45.32,0-.99.06-1.82,0-2.65-1.4-16.24.63-32.04,5.72-47.42,3.97-12,10.19-22.58,19.45-31.01,8.79-8.01,18.95-12.75,30.69-13.92,21.05-2.1,36.42,7.58,48.3,24.69,8.93,12.87,14.4,27.38,18.58,42.52,2.67,9.68,4.4,19.53,5.8,29.47.25,1.8.35,3.61.22,5.49-.49-2.27-.89-4.57-1.48-6.8-2.68-10.19-5.14-20.45-8.2-30.51-4.01-13.16-9.63-25.61-17.24-36.98-5.65-8.45-12.35-15.83-21.18-20.8-9.83-5.53-20.23-6.38-31.03-3.93-11.18,2.53-19.53,9.4-26.24,18.62-7.8,10.74-11.69,23.14-13.69,36.29-1.39,9.18-1.58,18.42-1.05,27.67.2,3.42.66,6.84,1.25,10.22.12.66,1.32,1.37,2.13,1.58,5.03,1.31,10.14,2.32,15.14,3.74,6.81,1.95,13.57,4.09,20.3,6.35,1.7.57,2.4.16,3.21-1.31,3.91-7.11,8.47-13.74,14.16-19.45,2.14-2.14,4.52-4.03,7-6.22-.28-.41-.57-.99-1-1.43-5.65-5.77-11.34-11.48-16.93-17.31-1.35-1.4-2.57-3.04-3.45-4.79-.95-1.9.17-3.51,2.27-3.52.94,0,2.07.13,2.78.67,2.51,1.88,5.19,3.67,7.23,6.04,4.36,5.07,8.41,10.44,12.49,15.76,1.05,1.37,1.93,1.82,3.59,1.09,4.18-1.84,8.58-2.37,13.13-2.3,7.55.12,13.01,4.06,17.51,9.87,5.7,7.38,9.15,15.94,11.68,24.92,2.76,9.81,4.6,19.77,4.83,30.02.04,1.74,0,3.48-.07,5.23-1.98-15.69-5.04-31.1-11.2-45.66-2.84-6.71-6.48-12.85-12.08-17.6-6.4-5.44-16.01-5.1-22.52-1.9-1.21.6-1.15,1.23-.41,2.34,7.18,10.73,14.56,21.33,21.32,32.34,5.19,8.45,9.58,17.41,14.25,26.2.92,1.74,1.46,3.7,2.16,5.57-.09.06-.19.11-.28.17h0l-.02-.03ZM149.17,152.54c-.07-.08-.17-.31-.32-.35-7.64-2.15-15.39-3.58-23.28-4.14-.47-.03-1.28.34-1.42.72-1.12,3.25-2.13,6.55-3.21,9.95,9.63-2.1,18.94-4.14,28.24-6.17h0Z"/>
    <path class="st2" d="M215.63,164.03c2.29-7.26,4.59-14.53,6.88-21.8-.16-.08-.32-.16-.47-.22-5.1,9.99-10.19,19.98-14.23,30.53-.22-.1-.42-.18-.64-.28,1.62-4.58,3.03-9.25,4.9-13.72,2.03-4.89,4.7-9.48,6.65-14.39,2.14-5.39,5.65-9.74,8.78-14.45,2.01-3.03,3.3-6.55,4.87-9.88,6.44-13.64,13.55-26.86,22.28-39.09,2.04-2.85,4.2-5.62,6.47-8.27.97-1.12,2.31-1.95,3.6-2.71.5-.29,1.57-.25,1.94.11.47.45.85,1.58.62,2.1-.78,1.74-1.66,3.51-2.86,4.94-2.56,3.04-5.59,5.68-7.97,8.86-2.97,3.97-5.61,8.23-8.14,12.53-3.79,6.43-7.37,13.01-11.02,19.53-.27.49-.42,1.05-.86,2.19,1.28-.86,2.07-1.37,2.84-1.91,12.66-8.98,25.9-9.87,39.63-2.97,4.75,2.39,8.62,5.99,11.88,10.27.77,1,1.53,1.36,2.8,1.29,6.49-.33,12.97-.52,19.87-.78.18-3.73.62-7.61.53-11.48-.32-14.2-1.77-28.26-5.5-41.98-2.53-9.3-5.74-18.34-11.15-26.31-4.21-6.19-9.43-11.15-16.79-12.99-8.24-2.05-15.75.19-22.66,4.72-9.15,6.02-16,14.47-21.95,23.72-6.51,10.11-11.83,20.92-16.05,32.25-2.49,6.7-4.44,13.63-6.56,20.48-2.95,9.49-5.34,19.13-6.53,29.05,0,.1-.14.18-.65.78.32-3.69.48-6.87.91-10,1.96-14.57,6.61-28.32,11.42-42.07,2.6-7.45,5.65-14.6,9.3-21.5,6.25-11.82,13.47-22.89,23.71-31.49,4.41-3.71,9.08-6.92,14.71-8.34,9.95-2.52,18.65-.02,26.42,6.79,7.95,6.96,12.63,16.15,16.43,25.87,4.5,11.51,7.33,23.54,8.66,35.87.93,8.61,1.32,17.3,1.85,25.96.09,1.55.74,1.9,1.99,2.08,12.16,1.82,23.77,5.36,34.41,11.91,13.43,8.29,22.43,20.16,26.59,35.87.36,1.36.62,2.75.87,4.13.22,1.29.8,2.02,2.08,2.57,14.23,6.03,28.04,12.94,40.92,21.72,6.44,4.39,12.59,9.24,17.81,15.21.97,1.11,1.92,2.52,2.16,3.93.19,1.05-.45,2.64-1.24,3.44-1,1.02-2.18.15-3.01-.81-1.78-2.04-3.62-4.03-5.3-6.16-6.55-8.31-15-14.14-23.93-19.13-8.21-4.59-16.75-8.57-25.16-12.78-.91-.46-1.91-.71-3.06-1.12-.08,1.82-.02,3.43-.26,4.99-.21,1.37-.55,2.79-1.16,4.02-1.25,2.52-3.67,2.61-5.23.28-2.09-3.14-2.51-6.81-2.48-10.45.02-2.24-.7-3.1-2.66-3.83-16.21-6.02-32.66-11.21-49.62-14.39-7.65-1.44-15.4-2.33-23.12-3.34-.7-.1-1.77.64-2.26,1.31-1.67,2.28-2.41,2.39-3.76-.04-.62-1.12-1.32-1.47-2.49-1.42-9.15.42-18.34.52-27.46,1.26-14.34,1.18-28.04,5.24-41.41,10.64-.93.38-1.89.69-2.84,1.03-.07-.16-.13-.31-.2-.47,1.96-.98,3.89-2.02,5.88-2.91,9.28-4.14,18.93-6.89,28.85-8.79,12.11-2.33,24.3-3.48,36.6-3.42,1.53,0,2.02-.59,2.41-2.14,1.81-7.22,1.56-14.29-.97-21.25-.66-1.82-1.52-3.59-2.5-5.24-.33-.56-1.39-1.1-2.01-.99-11.01,1.98-21.57,5.51-31.38,11.05-13.11,7.41-25.06,16.58-36.26,26.8-1.54,1.4-2.79,3.14-4.18,4.72-.15-.12-.31-.23-.46-.35.04-.2.03-.43.14-.59,4.15-6.1,9.14-11.34,14.72-16.04,7.34-6.18,15.2-11.5,23.43-16.28,8.48-4.93,17.44-8.62,26.89-10.97,1.57-.39,3.14-.79,4.71-1.15,1.1-.25,1.57-.69.66-1.75-8.07-9.39-18.11-13.96-30.22-12.55-6.94.8-12.71,4.57-18.29,8.9-6.11,4.75-8.91,11.59-12.07,18.28-2.02,4.29-3.96,8.63-5.8,13.01-1.32,3.13-2.41,6.36-3.62,9.55-.08.22-.23.4-.36.6-.08-.03-.17-.08-.26-.11v-.05h0ZM375.15,177.61c.38-3.38-1.16-9.62-3.3-14.02-5.44-11.17-14.21-18.77-24.67-24.38-4.34-2.33-8.94-4.23-13.59-5.79-4.09-1.37-8.42-2.01-12.64-2.97-1.14-.26-1.68.19-1.78,1.43-.12,1.61-.16,3.28-.62,4.79-.86,2.78-1.72,5.64-3.11,8.14-1.12,2.02-3.62,1.69-4.44-.5-.67-1.81-1.09-3.94-.86-5.84.28-2.35,1.34-4.6,2.07-6.88.34-1.06.87-2.27-.94-2.25-5.2.08-10.38.2-15.57.38-1.38.04-1.72.64-1,2.11,3.95,8.15,5.34,16.81,4.55,25.86-.26,2.98-.12,3.04,2.81,3.27,4.39.33,8.81.6,13.14,1.36,8.04,1.4,16.08,2.85,24,4.82,9.11,2.26,18.09,5.06,27.11,7.67,2.91.85,5.8,1.84,8.83,2.82h0v-.02Z"/>
    <path class="st2" d="M246.34,193.87c2.4,1.29,4.95,2.34,7.17,3.92,3.24,2.29,6.74,4.45,8.37,8.46.3.73.04,1.7.05,2.57-.89-.03-1.97.28-2.63-.15-1.01-.64-1.82-1.69-2.53-2.71-2.89-4.13-6.94-6.74-10.91-9.58-4.31-3.1-8.83-2.99-13.59-2.08-2.54.49-5.09.93-7.64,1.4-.03-.16-.07-.34-.1-.5,3.93-.9,7.85-1.8,11.78-2.69.02-.21.04-.42.06-.63-3.33-.89-6.66-1.77-9.99-2.66.03-.17.07-.34.11-.51,4.35.94,8.69,2.05,13.09,2.77,2.44.4,4.99.33,7.47.19,9.45-.52,18.89-.64,27.94,2.71,11.33,4.19,20.09,11.87,26.7,22.26,2.75,4.31,4.65,9.01,5.73,14.07.48,2.28-.25,3.86-1.89,4.25-1.57.38-3.48-.97-3.77-2.97-1.17-8.04-5.75-14.21-10.32-20.34-3.84-5.14-8.44-9.49-13.86-12.88-4.29-2.69-8.97-3.94-13.79-4.52-5.21-.63-10.49-.73-15.74-1.04-.54-.03-1.09.1-1.64.15-.02.19-.05.37-.07.56v-.03h0v-.02Z"/>
    <path class="st2" d="M209.83,105c-.67-4.65-1.7-9.29-1.96-13.96-.51-9.15-.9-18.33-.77-27.5.17-11.27,1.26-22.49,3.48-33.55.59-2.95,1.67-5.74,3.87-7.77.82-.76,2.39-1.54,3.16-1.19.76.34,1.44,2.17,1.27,3.19-.52,3.1-1.64,6.08-2.2,9.17-1.47,8.26-3.17,16.51-4.05,24.83-1.17,11.25-1.74,22.57-2.4,33.87-.25,4.28-.04,8.59-.04,12.89-.13,0-.26,0-.39.02h.03Z"/>
    <path class="st2" d="M200.8,181.71c3.26,3.29,6.29,3.85,9.48-.08.11,4.83,2.34,6.96,6.81,6.76-1.32,1.65-3.96,2.32-3.15,4.63.59,1.68,2.13,2.99,3.41,4.68-.6,0-1.26-.03-1.92,0-4.96.22-6.05,1.57-5.3,7.02-2.71-1.6-5.15-1.82-7.21,1.74-.33-4.32-2.96-5.56-6.35-6.07,1.32-3.36,2.91-6.68-1.9-9.14,4.35-1.65,6.27-4.71,6.13-9.55v.02h0Z"/>
    <path class="st2" d="M224.16,180.53c4.29-1.44,8.51-3.16,12.87-4.26,8.42-2.14,17-3.03,25.67-2.66,8.28.36,16.39,1.78,24.07,5.14,1.89.83,3.73,1.95,5.32,3.29,1.08.92,1.95,2.36,2.41,3.74.32.97.19,2.7-.42,3.25-.63.56-2.32.51-3.18.02-2.83-1.62-5.45-3.62-8.24-5.35-10.21-6.34-21.31-8.63-33.09-7.7-8.12.65-16.07,2.16-23.76,4.99-.47.17-.97.25-1.46.37-.07-.28-.13-.56-.2-.84h0Z"/>
    <path class="st2" d="M191.31,180.63c-3.75-.93-7.05-1.79-10.37-2.57-14.31-3.37-28.65-4.13-43.01-.31-2.57.68-5.1,1.59-7.69,2.22-.74.18-1.62-.24-2.42-.39.27-1.01.23-2.59.84-2.93,2.47-1.39,5.06-2.76,7.77-3.48,6.49-1.76,13.18-1.63,19.77-.98,7.2.73,14.41,1.78,21.5,3.28,4.34.92,8.45,2.95,12.67,4.49.22.08.39.28.94.68h0Z"/>
    <path class="st2" d="M191.51,185.7c-6.93.22-13.61,1.24-19.43,5.21-2.72,1.86-4.99,4.43-7.49,6.64-.82.73-1.64,1.53-2.59,2-.5.24-1.58.07-1.88-.33-.36-.48-.42-1.52-.17-2.14,1.32-3.29,4-5.31,6.89-6.83,7.09-3.71,14.74-4.94,22.6-4.97.68,0,1.37.26,2.06.41h.01Z"/>
    <path class="st2" d="M217.08,201.68c1.02.69,2.07,1.34,3.07,2.08,4.25,3.16,7.56,7.13,9.3,12.32.81,2.41.92,4.89-.25,7.24-.26.52-.92,1.16-1.38,1.13-.5-.02-1.22-.65-1.39-1.18-.37-1.12-.67-2.34-.64-3.51.13-5.21-1.72-9.55-4.99-13.36-1.28-1.49-2.57-2.97-3.86-4.45.05-.1.09-.19.14-.28h0Z"/>
    <path class="st2" d="M433.69,221.89c-.03,3.94,1.69,5.92,5.8,5.53-.05.19-.11.38-.16.57-.81.44-1.57,1.02-2.42,1.3-1.79.59-1.94,1.86-1.6,3.46.15.69.22,1.4.37,2.48-1.5-1.25-2.59-2.83-3.89-3.04-1.32-.22-2.86.89-4.6,1.53.68-1.57,1.9-3.05,1.73-4.36-.17-1.37-1.66-2.58-2.69-4.02,1.6.12,3.36.78,4.6.21,1.23-.58,1.94-2.39,2.87-3.66h0Z"/>
    <path class="st2" d="M271.08,98.93c-3.57,1.38-5.65,3.23-3.7,7.56-2.48-3.12-5.07-4.24-8.32-1.15-.02-.21-.02-.42-.04-.63.57-1.44,1.7-2.95,1.57-4.32-.12-1.27-1.57-2.41-2.5-3.95,3.62,1.55,5.88.23,7.26-3.58.04,4.02,1.61,6.2,5.72,6.08h.01Z"/>
    <path class="st2" d="M149.57,187.41c-3.54,1.57-5.21,3.71-3.25,7.79-2.62-2.82-5.21-4.08-8.44-.86,1.48-3.26,2.07-6.06-1.74-7.92.15-.11.29-.22.44-.34,1.48-.1,3.22.29,4.36-.41,1.12-.67,1.62-2.44,2.71-3.99-.17,4.27,1.82,5.97,5.9,5.72h.02Z"/>
    <path class="st2" d="M285.7,57.61c3.87,1.43,6.08-.04,7.54-3.83-.1,4.23,1.7,6.24,5.82,5.87-.07.2-.15.39-.23.59-.77.43-1.48,1.05-2.31,1.25-1.96.49-2.24,1.71-1.73,3.48.19.68.23,1.41.42,2.53-1.48-1.26-2.56-2.84-3.86-3.09-1.31-.23-2.84.87-4.86,1.6,2.33-3.18,2.81-5.94-.78-8.41h-.01Z"/>
    <path class="st2" d="M135.28,27.37c4.4.65,5.64-1.87,5.79-5.87,1.15,4.2,3.58,5.33,7.44,3.98-2.62,2.5-4.2,4.89-1.16,8.28-3.33-2.13-5.99-2.01-8.21,1.3,0-1.56.46-3.35-.13-4.59-.56-1.16-2.24-1.73-3.42-2.56-.1-.18-.2-.35-.3-.54h0Z"/>
    <path class="st2" d="M269.56,208.34c3.53,1.18,5.86.03,7.17-4.2.59,2.16.59,4.06,1.5,4.99s2.73.92,4.54,1.42c-1.57.93-3.33,1.42-4.02,2.58-.64,1.08-.13,2.9-.13,4.73-1.28-1.1-2.31-2.65-3.56-2.89-1.27-.24-2.77.8-4.48,1.38.61-1.59,1.72-3.1,1.54-4.42-.17-1.3-1.64-2.4-2.55-3.6h-.01Z"/>
    <path class="st2" d="M369.88,211.88c2.99-2.17,3.66-4.72,1.3-8.23,3.17,2.55,5.8,2.4,8.3-.99-1.28,3.88-.31,6.47,3.56,7.78-3.5.28-6.55.67-6.27,5.31-.84-1.29-1.42-3.06-2.59-3.74-1.12-.64-2.85-.14-4.31-.14h.01Z"/>
    <path class="st2" d="M172.71,78.08c3.92,1.07,6.3-.1,6.98-4.37.16.12.31.24.47.36.45,1.48.51,3.37,1.46,4.31.92.92,2.75.84,4.46,1.27-1.33.95-3.06,1.57-3.64,2.78-.56,1.15.08,2.91.25,5.21-2.46-3.85-5.14-3.6-8.28-1.31,2.45-3.5,1.72-6.09-1.71-8.26h0Z"/>
    <path class="st2" d="M303.73,183.97c-1.47-1.21-2.57-2.78-3.86-2.98-1.32-.2-2.83.96-4.83,1.76,2.06-3.11,3.28-5.88-.27-8.36.64,0,1.35-.18,1.92.03,1.79.67,2.96.23,3.69-1.66.27-.73.84-1.33,1.67-2.57-.11,4.21,1.34,6.5,5.45,6.01l-.12.56c-.73.44-1.42,1.03-2.21,1.28-1.72.55-2.19,1.64-1.76,3.37.17.69.18,1.44.31,2.56h0Z"/>
    <path class="st2" d="M68.88,156.56c3.93-.06,5.66-2.06,5.87-5.98,1.22,3.97,3.69,4.82,7.14,3.96-.95,1.15-2.44,2.19-2.68,3.48-.23,1.25.83,2.76,1.54,4.79-3.32-2.7-5.88-2.09-8.1,1.38,1.14-3.93.25-6.49-3.78-7.62h0Z"/>
    <path class="st2" d="M74.37,94.33c-1.3,2.98-.92,5.86,1.16,8.63-3.71-1.51-6.39-1.09-7.74,2.88-.34-1.5-.27-3.4-1.16-4.39-.86-.98-2.68-1.03-4.16-1.52,1.33-.81,3.08-1.3,3.71-2.45.63-1.13.14-2.94.36-4.82,2.12,3.55,4.69,4.03,7.84,1.66h-.01Z"/>
    <path class="st2" d="M339.05,128.06c2.01-3.39,1.92-5.99-1.55-8.15,3.71,1.01,5.91-.26,7.07-3.99.04,4.16,2.23,5.52,5.95,5.49-3.41,1.45-5.14,3.59-3.31,7.58-2.5-3.16-5.02-3.87-8.17-.92h0Z"/>
    <path class="st2" d="M222.48,0c-.12,2.76-.65,5.38,2.52,6.61-2.76.86-5.03,1.98-4.93,5.32-.63-1.09-1.03-2.55-1.96-3.17-.89-.6-2.31-.33-3.71-.47.81-1.31,1.88-2.4,2.12-3.67.23-1.2-.42-2.59-.71-4.06,1.2.63,2.3,1.68,3.32,1.61,1.04-.07,2.01-1.25,3.32-2.17h.03Z"/>
  </g>
</svg>